<svg xmlns="http://www.w3.org/2000/svg" xmlns:xlink="http://www.w3.org/1999/xlink" xmlns:lucid="lucid" width="2500" height="1000"><g transform="translate(1000 0)" lucid:page-tab-id="0_0"><path d="M-1000 0h2500v1000h-2500z" fill="#fff"/><path d="M-814.14 370a6 6 0 0 1 6-6h356.76a6 6 0 0 1 6 6v314a6 6 0 0 1-6 6h-356.76a6 6 0 0 1-6-6zM107.77 370a6 6 0 0 1 6-6H454a6 6 0 0 1 6 6v276a6 6 0 0 1-6 6H113.77a6 6 0 0 1-6-6zM499.36 371.8a6 6 0 0 1 6-6H914a6 6 0 0 1 6 6V646a6 6 0 0 1-6 6H505.36a6 6 0 0 1-6-6zM1020.9 375.4a6 6 0 0 1 6-6H1354a6 6 0 0 1 6 6V646a6 6 0 0 1-6 6h-327.1a6 6 0 0 1-6-6z" stroke="#000" fill-opacity="0"/><path d="M-400.7 366a6 6 0 0 1 6-6h215.5a6 6 0 0 1 6 6v100a6 6 0 0 1-6 6h-215.5a6 6 0 0 1-6-6z" stroke="#000" fill="#fff"/><use xlink:href="#a" transform="matrix(1,0,0,1,-388.7114917675173,372) translate(102.50753129947644 23.14830731729818)"/><use xlink:href="#b" transform="matrix(1,0,0,1,-388.7114917675173,372) translate(11.20956875189622 53.719065881735375)"/><use xlink:href="#c" transform="matrix(1,0,0,1,-388.7114917675173,372) translate(81.30353965999846 53.719065881735375)"/><use xlink:href="#d" transform="matrix(1,0,0,1,-388.7114917675173,372) translate(54.47599241965043 84.28982444617257)"/><path d="M-138.08 366a6 6 0 0 1 6-6H74a6 6 0 0 1 6 6v100a6 6 0 0 1-6 6h-206.08a6 6 0 0 1-6-6z" stroke="#000" fill="#fff"/><use xlink:href="#e" transform="matrix(1,0,0,1,-126.07560137457051,372) translate(97.53544203005289 25.39056652812201)"/><use xlink:href="#f" transform="matrix(1,0,0,1,-126.07560137457051,372) translate(3.628019457092749 51.16162072704995)"/><use xlink:href="#g" transform="matrix(1,0,0,1,-126.07560137457051,372) translate(90.94584256608623 51.16162072704995)"/><use xlink:href="#h" transform="matrix(1,0,0,1,-126.07560137457051,372) translate(56.682627854948656 76.93267492597789)"/><path d="M-313.68 550a6 6 0 0 1 6-6H-3.6a6 6 0 0 1 6 6v96a6 6 0 0 1-6 6h-304.08a6 6 0 0 1-6-6z" stroke="#000" fill="#fff"/><use xlink:href="#i" transform="matrix(1,0,0,1,-301.67697594501715,556) translate(20.023431532851454 32.80555304976173)"/><use xlink:href="#j" transform="matrix(1,0,0,1,-301.67697594501715,556) translate(142.81883357548745 32.80555304976173)"/><use xlink:href="#k" transform="matrix(1,0,0,1,-301.67697594501715,556) translate(170.83486259388738 32.80555304976173)"/><use xlink:href="#l" transform="matrix(1,0,0,1,-301.67697594501715,556) translate(45.42978032104954 66.28435664869178)"/><use xlink:href="#m" transform="matrix(1,0,0,1,-301.67697594501715,556) translate(182.20979166902723 66.28435664869178)"/><path d="M-725.84 546h192.16" stroke="#000" stroke-linecap="round" fill="none"/><path d="M-444.38 527h80.2" stroke="#3a414a" fill="none"/><path d="M-444.37 527.48h-.5v-.96h.5z" stroke="#3a414a" stroke-width=".05" fill="#3a414a"/><path d="M-350.4 526.1l-13.95 5.56-.6-9.25z" stroke="#3a414a" fill="#3a414a"/><path d="M40.5 508h50.38M40.5 508H40" stroke="#3a414a" fill="none"/><path d="M105.65 508l-14.27 4.63v-9.26z" stroke="#3a414a" fill="#3a414a"/><path d="M461 508h18.23a.45.45 0 0 1 .45.45.45.45 0 0 0 .45.45h2.34" stroke="#3a414a" fill="none"/><path d="M461 508.48h-.5v-.96h.5z" stroke="#3a414a" stroke-width=".05" fill="#3a414a"/><path d="M497.24 508.9l-14.27 4.63v-9.26z" stroke="#3a414a" fill="#3a414a"/><path d="M921 508.9l83 1.5" stroke="#3a414a" fill="none"/><path d="M921.02 508.43l-.02.95h-.5v-.95z" stroke="#3a414a" stroke-width=".05" fill="#3a414a"/><path d="M1018.78 510.67l-14.35 4.38.17-9.27z" stroke="#3a414a" fill="#3a414a"/><path d="M-286.6 472.85l61.6 59.3" stroke="#3a414a" fill="none"/><path d="M-286.25 472.5l-.66.7-.74-.7h1.37z" stroke="#3a414a" stroke-width=".05" fill="#3a414a"/><path d="M-214.35 542.38l-13.5-6.55 6.44-6.68z" stroke="#3a414a" fill="#3a414a"/><path d="M-29.43 472.8l-76.74 60.55" stroke="#3a414a" fill="none"/><path d="M-29.15 473.2l-.54-.7h1.43z" stroke="#3a414a" stroke-width=".05" fill="#3a414a"/><path d="M-117.76 542.5l8.33-12.48 5.74 7.28z" stroke="#3a414a" fill="#3a414a"/><path d="M-760 417.5a6 6 0 0 1 6-6h276.28a6 6 0 0 1 6 6v69a6 6 0 0 1-6 6H-754a6 6 0 0 1-6-6z" fill="none"/><use xlink:href="#n" transform="matrix(1,0,0,1,-760,411.5) translate(56.263237847222214 30.04123263888889)"/><use xlink:href="#o" transform="matrix(1,0,0,1,-760,411.5) translate(4.408854166666657 73.49956597222223)"/><use xlink:href="#p" transform="matrix(1,0,0,1,-760,411.5) translate(184.93836805555554 73.49956597222223)"/><path d="M-749.5 567.5a6 6 0 0 1 6-6H-516a6 6 0 0 1 6 6v96a6 6 0 0 1-6 6h-227.5a6 6 0 0 1-6-6z" fill="none"/><use xlink:href="#q" transform="matrix(1,0,0,1,-749.5103092783505,561.5) translate(4.349817708333334 46.17230902777778)"/><use xlink:href="#r" transform="matrix(1,0,0,1,-749.5103092783505,561.5) translate(16.740000000000002 46.17230902777778)"/><use xlink:href="#s" transform="matrix(1,0,0,1,-749.5103092783505,561.5) translate(101.92880208333335 46.17230902777778)"/><use xlink:href="#q" transform="matrix(1,0,0,1,-749.5103092783505,561.5) translate(4.349817708333334 77.21397569444444)"/><use xlink:href="#t" transform="matrix(1,0,0,1,-749.5103092783505,561.5) translate(16.740000000000002 77.21397569444444)"/><use xlink:href="#u" transform="matrix(1,0,0,1,-749.5103092783505,561.5) translate(87.8554513888889 77.21397569444444)"/><path d="M152.17 508.9h192.16M560.5 520.5h283.47M1100.5 500.5h183.38" stroke="#000" stroke-linecap="round" fill="none"/><path d="M140 526a6 6 0 0 1 6-6h275.77a6 6 0 0 1 6 6v96a6 6 0 0 1-6 6H146a6 6 0 0 1-6-6z" fill="none"/><use xlink:href="#v" transform="matrix(1,0,0,1,140,520) translate(7.090928819444444 22.891059027777775)"/><use xlink:href="#w" transform="matrix(1,0,0,1,140,520) translate(22.22222222222222 22.891059027777775)"/><use xlink:href="#x" transform="matrix(1,0,0,1,140,520) translate(77.50651041666666 22.891059027777775)"/><use xlink:href="#v" transform="matrix(1,0,0,1,140,520) translate(7.090928819444444 61.693142361111114)"/><use xlink:href="#y" transform="matrix(1,0,0,1,140,520) translate(22.22222222222222 61.693142361111114)"/><use xlink:href="#z" transform="matrix(1,0,0,1,140,520) translate(126.73611111111111 61.693142361111114)"/><use xlink:href="#v" transform="matrix(1,0,0,1,140,520) translate(7.090928819444444 100.49522569444444)"/><use xlink:href="#A" transform="matrix(1,0,0,1,140,520) translate(22.22222222222222 100.49522569444444)"/><use xlink:href="#B" transform="matrix(1,0,0,1,140,520) translate(79.11241319444443 100.49522569444444)"/><use xlink:href="#C" transform="matrix(1,0,0,1,140,520) translate(222.16796874999997 100.49522569444444)"/><path d="M120.94 403.5a6 6 0 0 1 6-6h320.23a6 6 0 0 1 6 6V466a6 6 0 0 1-6 6H126.94a6 6 0 0 1-6-6z" fill="none"/><use xlink:href="#D" transform="matrix(1,0,0,1,120.93642611683858,397.49999999999994) translate(64.73567708333333 28.878038194444446)"/><use xlink:href="#E" transform="matrix(1,0,0,1,120.93642611683858,397.49999999999994) translate(21.631293402777743 72.33637152777779)"/><use xlink:href="#F" transform="matrix(1,0,0,1,120.93642611683858,397.49999999999994) translate(179.08572048611111 72.33637152777779)"/><path d="M500 406a6 6 0 0 1 6-6h391.88a6 6 0 0 1 6 6v81.6a6 6 0 0 1-6 6H506a6 6 0 0 1-6-6z" fill="none"/><g><use xlink:href="#G" transform="matrix(1,0,0,1,500,400) translate(67.44596354166666 28.878038194444446)"/><use xlink:href="#H" transform="matrix(1,0,0,1,500,400) translate(236.90125868055554 28.878038194444446)"/><use xlink:href="#I" transform="matrix(1,0,0,1,500,400) translate(19.131076388888857 72.33637152777779)"/><use xlink:href="#J" transform="matrix(1,0,0,1,500,400) translate(249.1527777777778 72.33637152777779)"/><use xlink:href="#K" transform="matrix(1,0,0,1,500,400) translate(144.099609375 108.55164930555556)"/></g><path d="M540 546a6 6 0 0 1 6-6h374.32a6 6 0 0 1 6 6v69a6 6 0 0 1-6 6H546a6 6 0 0 1-6-6z" fill="none"/><g><use xlink:href="#v" transform="matrix(1,0,0,1,540,540) translate(7.090928819444444 32.67230902777778)"/><use xlink:href="#L" transform="matrix(1,0,0,1,540,540) translate(22.22222222222222 32.67230902777778)"/><use xlink:href="#M" transform="matrix(1,0,0,1,540,540) translate(204.0907118055556 32.67230902777778)"/><use xlink:href="#v" transform="matrix(1,0,0,1,540,540) translate(7.090928819444444 63.71397569444444)"/><use xlink:href="#N" transform="matrix(1,0,0,1,540,540) translate(22.22222222222222 63.71397569444444)"/><use xlink:href="#O" transform="matrix(1,0,0,1,540,540) translate(126.64930555555554 63.71397569444444)"/></g><path d="M1020 386a6 6 0 0 1 6-6h342.23a6 6 0 0 1 6 6v98.5a6 6 0 0 1-6 6H1026a6 6 0 0 1-6-6z" fill="none"/><g><use xlink:href="#P" transform="matrix(1,0,0,1,1020,380) translate(55.151909722222214 44.541232638888886)"/><use xlink:href="#Q" transform="matrix(1,0,0,1,1020,380) translate(135.07161458333331 44.541232638888886)"/><use xlink:href="#R" transform="matrix(1,0,0,1,1020,380) translate(103.10221354166666 87.99956597222223)"/></g><path d="M1060 526a6 6 0 0 1 6-6h311.1a6 6 0 0 1 6 6v110.2a6 6 0 0 1-6 6H1066a6 6 0 0 1-6-6z" fill="none"/><g><use xlink:href="#v" transform="matrix(1,0,0,1,1060,520) translate(7.090928819444444 38.15147569444444)"/><use xlink:href="#S" transform="matrix(1,0,0,1,1060,520) translate(22.22222222222222 38.15147569444444)"/><use xlink:href="#T" transform="matrix(1,0,0,1,1060,520) translate(91.61241319444443 38.15147569444444)"/><use xlink:href="#U" transform="matrix(1,0,0,1,1060,520) translate(209.1905381944444 38.15147569444444)"/><use xlink:href="#V" transform="matrix(1,0,0,1,1060,520) translate(229.88281249999994 38.15147569444444)"/><use xlink:href="#v" transform="matrix(1,0,0,1,1060,520) translate(7.090928819444444 69.1931423611111)"/><use xlink:href="#W" transform="matrix(1,0,0,1,1060,520) translate(22.22222222222222 69.1931423611111)"/><use xlink:href="#X" transform="matrix(1,0,0,1,1060,520) translate(119.91102430555557 69.1931423611111)"/><use xlink:href="#v" transform="matrix(1,0,0,1,1060,520) translate(7.090928819444444 100.23480902777777)"/><use xlink:href="#Y" transform="matrix(1,0,0,1,1060,520) translate(22.22222222222222 100.23480902777777)"/><use xlink:href="#Z" transform="matrix(1,0,0,1,1060,520) translate(174.49001736111114 100.23480902777777)"/></g><path d="M-348.3 688.9H37.03" stroke="#000" stroke-linecap="round" fill="none"/><path d="M-383.92 730a6 6 0 0 1 6-6H66.65a6 6 0 0 1 6 6v22.2a6 6 0 0 1-6 6h-444.57a6 6 0 0 1-6-6z" fill="none"/><g><use xlink:href="#aa" transform="matrix(1,0,0,1,-383.91752577319585,724) translate(6.397135416666657 24.752604166666668)"/><use xlink:href="#ab" transform="matrix(1,0,0,1,-383.91752577319585,724) translate(190.52473958333334 24.752604166666668)"/><use xlink:href="#ac" transform="matrix(1,0,0,1,-383.91752577319585,724) translate(307.68619791666663 24.752604166666668)"/><use xlink:href="#ad" transform="matrix(1,0,0,1,-383.91752577319585,724) translate(165.83723958333331 62.00260416666667)"/></g><path d="M-155.64 653v20.02" stroke="#3a414a" fill="none"/><path d="M-155.16 653h-.95v-.5h.94z" stroke="#3a414a" stroke-width=".05" fill="#3a414a"/><path d="M-155.64 687.78l-4.63-14.26h9.27z" stroke="#3a414a" fill="#3a414a"/><path d="M108.27 688.9H405.8" stroke="#000" stroke-linecap="round" fill="none"/><path d="M283.88 653v19.02" stroke="#3a414a" fill="none"/><path d="M284.36 653h-.95v-.5h.96z" stroke="#3a414a" stroke-width=".05" fill="#3a414a"/><path d="M283.88 686.78l-4.63-14.26h9.27z" stroke="#3a414a" fill="#3a414a"/><path d="M72.65 730a6 6 0 0 1 6-6h339.2a6 6 0 0 1 6 6v24a6 6 0 0 1-6 6H78.65a6 6 0 0 1-6-6z" fill="none"/><g><use xlink:href="#ae" transform="matrix(1,0,0,1,72.64604810996573,724) translate(26.481770833333314 24.752604166666668)"/><use xlink:href="#af" transform="matrix(1,0,0,1,72.64604810996573,724) translate(138.23958333333331 24.752604166666668)"/><use xlink:href="#ag" transform="matrix(1,0,0,1,72.64604810996573,724) translate(205.23177083333331 24.752604166666668)"/><use xlink:href="#ah" transform="matrix(1,0,0,1,72.64604810996573,724) translate(95.86979166666666 62.00260416666667)"/></g><path d="M-760 506a6 6 0 0 1 6-6h261.16a6 6 0 0 1 6 6v42a6 6 0 0 1-6 6H-754a6 6 0 0 1-6-6z" fill="none"/><g><use xlink:href="#ai" transform="matrix(1,0,0,1,-760,500.00000000000006) translate(1.881727430555543 34.693142361111114)"/><use xlink:href="#aj" transform="matrix(1,0,0,1,-760,500.00000000000006) translate(111.7341579861111 34.693142361111114)"/><use xlink:href="#ak" transform="matrix(1,0,0,1,-760,500.00000000000006) translate(144.98068576388889 34.693142361111114)"/><use xlink:href="#al" transform="matrix(1,0,0,1,-760,500.00000000000006) translate(163.17730034722223 34.693142361111114)"/></g><path d="M-140 366a6 6 0 0 1 6-6H64.72a6 6 0 0 1 6 6v24a6 6 0 0 1-6 6H-134a6 6 0 0 1-6-6z" fill="none"/><g><use xlink:href="#am" transform="matrix(1,0,0,1,-140,360) translate(12.0625 24.923828125)"/><use xlink:href="#an" transform="matrix(1,0,0,1,-140,360) translate(136.96484375 24.923828125)"/></g><path d="M-392.3 370a6 6 0 0 1 6-6h198.7a6 6 0 0 1 6 6v24a6 6 0 0 1-6 6H-386.3a6 6 0 0 1-6-6z" fill="none"/><g><use xlink:href="#ao" transform="matrix(1,0,0,1,-392.3145087703566,364) translate(9.2109375 24.923828125)"/><use xlink:href="#an" transform="matrix(1,0,0,1,-392.3145087703566,364) translate(139.81640625 24.923828125)"/></g><defs><path d="M218-607c0-325 108-727 258-974h175c-155 315-250 682-250 974 0 265 78 531 250 886H476C306-10 218-315 218-607" id="ap"/><path d="M180 0v-1490h190v1322h690V0H180" id="aq"/><path d="M471 26C259 26 90-98 90-318c0-256 228-303 435-329 202-27 287-16 287-108 0-139-79-219-234-219-161 0-248 86-283 164l-173-57c86-203 278-265 451-265 150 0 419 46 419 395V0H815v-152h-12C765-73 660 26 471 26zm31-159c199 0 310-134 310-271v-155c-30 35-226 55-295 64-131 17-246 59-246 186 0 116 97 176 231 176" id="ar"/><path d="M158 0v-1118h174v172h12c41-113 157-188 290-188 26 0 70 2 91 3v181c-11-2-60-10-108-10-161 0-279 109-279 260V0H158" id="as"/><path d="M611 442c-248 0-391-105-460-228l146-94c47 65 117 165 314 165 178 0 307-82 307-266v-224h-17C863-141 792-18 576-18c-268 0-472-195-472-546 0-346 197-568 476-568 216 0 288 133 326 193h17v-179h175V29c0 289-215 413-487 413zm-5-620c203 0 314-146 314-390 0-237-108-403-314-403-213 0-319 180-319 403 0 230 109 390 319 390" id="at"/><path d="M628 24c-324 0-524-230-524-574 0-343 198-582 503-582 237 0 487 146 487 559v75H286c9 234 145 362 343 362 132 0 231-58 273-172l174 48C1024-91 857 24 628 24zM287-650h624c-17-190-120-322-304-322-192 0-309 151-320 322" id="au"/><g id="b"><use transform="matrix(0.01028072321914084,0,0,0.01028072321914084,0,0)" xlink:href="#ap"/><use transform="matrix(0.01028072321914084,0,0,0.01028072321914084,7.679700244698206,0)" xlink:href="#aq"/><use transform="matrix(0.01028072321914084,0,0,0.01028072321914084,19.584777732463298,0)" xlink:href="#ar"/><use transform="matrix(0.01028072321914084,0,0,0.01028072321914084,31.40760943447527,0)" xlink:href="#as"/><use transform="matrix(0.01028072321914084,0,0,0.01028072321914084,38.98450244698206,0)" xlink:href="#at"/><use transform="matrix(0.01028072321914084,0,0,0.01028072321914084,51.89709081022297,0)" xlink:href="#au"/></g><path d="M180 0v-1490h908v168H370v486h669v168H370v500h727V0H180" id="av"/><path d="M158 0v-1118h175l1 205c55-151 181-225 313-225 147 0 245 90 285 228 53-141 190-228 352-228 194 0 352 125 352 384V0h-181v-749c0-161-105-225-225-225-151 0-243 103-243 244V0H807v-767c0-124-93-207-219-207-131 0-250 92-250 270V0H158" id="aw"/><path d="M677 24c-213 0-288-135-325-197h-20V0H158v-1490h180v551h14c37-59 106-193 324-193 279 0 474 222 474 576 0 356-194 580-473 580zm-27-161c209 0 317-186 317-421 0-232-105-413-317-413-206 0-314 166-314 413 0 249 111 421 314 421" id="ax"/><path d="M577 24c-279 0-473-224-473-580 0-354 195-576 474-576 218 0 287 134 324 193h14v-551h180V0H922v-173h-20C865-111 790 24 577 24zm27-161c203 0 314-172 314-421 0-247-108-413-314-413-212 0-317 181-317 413 0 235 108 421 317 421" id="ay"/><path d="M158 0v-1118h180V0H158zm91-1301c-68 0-125-53-125-119s57-119 125-119c69 0 126 53 126 119s-57 119-126 119" id="az"/><path d="M338-670V0H158v-1118h173l1 207c72-158 192-221 342-221 226 0 378 139 378 422V0H872v-695c0-172-96-275-252-275-161 0-282 109-282 300" id="aA"/><g id="c"><use transform="matrix(0.01028072321914084,0,0,0.01028072321914084,0,0)" xlink:href="#av"/><use transform="matrix(0.01028072321914084,0,0,0.01028072321914084,12.655570282762373,0)" xlink:href="#aw"/><use transform="matrix(0.01028072321914084,0,0,0.01028072321914084,31.09918773790104,0)" xlink:href="#ax"/><use transform="matrix(0.01028072321914084,0,0,0.01028072321914084,43.99121465470364,0)" xlink:href="#au"/><use transform="matrix(0.01028072321914084,0,0,0.01028072321914084,56.26639817835781,0)" xlink:href="#ay"/><use transform="matrix(0.01028072321914084,0,0,0.01028072321914084,69.15842509516042,0)" xlink:href="#ay"/><use transform="matrix(0.01028072321914084,0,0,0.01028072321914084,82.05045201196303,0)" xlink:href="#az"/><use transform="matrix(0.01028072321914084,0,0,0.01028072321914084,87.14969072865689,0)" xlink:href="#aA"/><use transform="matrix(0.01028072321914084,0,0,0.01028072321914084,99.58936582381732,0)" xlink:href="#at"/></g><path d="M783 20c-382 0-661-292-661-764 0-473 279-766 661-766 302 0 548 182 601 489h-190c-42-204-217-313-411-313-268 0-476 208-476 590 0 381 209 588 476 588 195 0 369-110 411-313h190c-52 303-296 489-601 489" id="aB"/><path d="M158 418v-1536h174v179h20c37-59 106-193 324-193 279 0 474 222 474 576 0 356-194 580-473 580-213 0-288-135-325-197h-14v591H158zm492-555c209 0 317-186 317-421 0-232-105-413-317-413-206 0-314 166-314 413 0 249 111 421 314 421" id="aC"/><path d="M613 24c-304 0-509-231-509-576 0-350 205-580 509-580 216 0 392 114 453 309l-173 49c-33-115-133-197-280-197-223 0-326 196-326 419 0 220 103 415 326 415 150 0 252-85 285-206l172 49C1010-95 832 24 613 24" id="aD"/><path d="M598-1118v154H368v674c0 100 37 144 132 144 23 0 62-6 92-12L629-6c-37 13-88 20-134 20-193 0-307-107-307-290v-688H20v-154h168v-266h180v266h230" id="aE"/><path d="M140 405l46-156c120 36 205 19 263-150l32-93L54-1118h197c107 313 237 620 324 950 87-331 219-637 326-950h196L606 167c-68 178-176 259-334 259-64 0-113-12-132-21" id="aF"/><path d="M96 279C273-86 346-350 346-607c0-292-95-659-250-974h175c150 246 258 650 258 974 0 297-91 602-258 886H96" id="aG"/><g id="d"><use transform="matrix(0.01028072321914084,0,0,0.01028072321914084,0,0)" xlink:href="#aB"/><use transform="matrix(0.01028072321914084,0,0,0.01028072321914084,15.379961935834697,0)" xlink:href="#ar"/><use transform="matrix(0.01028072321914084,0,0,0.01028072321914084,27.20279363784666,0)" xlink:href="#aC"/><use transform="matrix(0.01028072321914084,0,0,0.01028072321914084,40.30043501903209,0)" xlink:href="#ar"/><use transform="matrix(0.01028072321914084,0,0,0.01028072321914084,52.12326672104407,0)" xlink:href="#aD"/><use transform="matrix(0.01028072321914084,0,0,0.01028072321914084,64.15171288743885,0)" xlink:href="#az"/><use transform="matrix(0.01028072321914084,0,0,0.01028072321914084,69.2509516041327,0)" xlink:href="#aE"/><use transform="matrix(0.01028072321914084,0,0,0.01028072321914084,76.5502650897227,0)" xlink:href="#aF"/><use transform="matrix(0.01028072321914084,0,0,0.01028072321914084,88.38337751495382,0)" xlink:href="#aG"/></g><path d="M643-1464c-244 139-313 433-313 815s69 678 313 817v94C288 130 117-156 117-649c0-361 84-614 285-771 67-53 147-99 241-136v92" id="aH"/><path d="M1141-289c47 27 51 110 13 159C1076-28 927 20 739 20c-439 0-622-310-622-753 0-346 130-585 372-695 199-90 579-71 673 84 39 64 27 161-25 196-32 21-74 38-127 38-5-158-78-264-240-264-349 0-426 285-426 641 0 266 62 478 232 573 54 30 119 45 194 45 183 1 293-72 371-174" id="aI"/><path d="M594-1118c338 0 472 222 475 567 2 360-143 571-481 571S115-205 113-551c-2-359 142-567 481-567zm-4 108c-241 0-279 212-279 459 0 249 39 465 281 465s278-216 278-465c0-248-38-459-280-459" id="aJ"/><path d="M434-223c-3 108 66 141 174 137V0H57v-86c121 8 185-28 185-147v-639c3-106-58-144-164-140v-86h321l27 166h10c60-112 141-188 309-186 158 2 252 69 297 186h17c61-114 150-188 321-186 240 3 333 155 334 401v484c-3 110 54 152 164 147V0h-356v-707c0-166-49-282-215-280-172 2-228 132-228 305v449c-3 110 54 152 164 147V0H887v-707c0-166-49-282-215-280-182 3-238 148-238 332v432" id="aK"/><path d="M946-553c0-230-32-430-254-434-242-4-278 193-278 436s40 440 280 440c221 0 252-212 252-442zm-219-565c321 0 418 237 418 567 0 331-96 571-418 571-163 0-254-75-313-180h-8c7 140 10 280 8 428-2 108 66 142 174 138v86H37v-86c118 6 184-32 184-148V-872c3-116-76-146-194-140v-86h358l21 185h8c57-116 142-205 313-205" id="aL"/><path d="M467-106c176 0 267-107 272-285v-166c-189 6-378 9-423 154-10 31-15 66-15 106 0 123 47 191 166 191zm272-535c5-199 13-375-190-375-142 0-190 83-187 223-106-2-174-27-174-129 0-169 191-191 369-196 250-7 375 104 375 354v531c-3 100 32 153 133 147V0H788l-32-176h-17C664-76 596 23 420 20 213 16 102-97 102-307c0-109 41-186 116-242 100-75 325-89 521-92" id="aM"/><path d="M893-256c39 28 47 103 13 150C845-22 730 20 580 20c-332 0-467-220-467-563 0-349 119-575 456-575 140 0 259 39 325 116 44 51 42 161-14 193-31 18-76 29-137 29-1-134-38-239-174-236-232 6-258 224-258 471 0 264 65 427 310 432 127 2 227-62 272-143" id="aN"/><path d="M387-291c-2 124 47 200 156 203 51 1 88-6 131-14v90C626 8 560 18 492 20 278 25 195-83 195-297v-684H39v-82c170-8 224-133 254-287h94v252h268v117H387v690" id="aO"/><g id="f"><use transform="matrix(0.009008338296605125,0,0,0.009008338296605125,0,0)" xlink:href="#aH"/><use transform="matrix(0.009008338296605125,0,0,0.009008338296605125,6.386911852293033,0)" xlink:href="#aI"/><use transform="matrix(0.009008338296605125,0,0,0.009008338296605125,17.341051220964868,0)" xlink:href="#aJ"/><use transform="matrix(0.009008338296605125,0,0,0.009008338296605125,27.98890708755212,0)" xlink:href="#aK"/><use transform="matrix(0.009008338296605125,0,0,0.009008338296605125,45.239874925550936,0)" xlink:href="#aL"/><use transform="matrix(0.009008338296605125,0,0,0.009008338296605125,56.563356164383585,0)" xlink:href="#aM"/><use transform="matrix(0.009008338296605125,0,0,0.009008338296605125,66.9499702203693,0)" xlink:href="#aN"/><use transform="matrix(0.009008338296605125,0,0,0.009008338296605125,76.03037522334726,0)" xlink:href="#aO"/></g><path d="M272-1229c4-120-72-154-194-147v-86h1032l10 358h-106c-7-141-39-256-191-256H479v545h494v100H479v613h395c120 0 178-65 195-168l14-88h107L1176 0H78v-86c117 6 194-21 194-137v-1006" id="aP"/><path d="M727-1118c321 0 418 237 418 567 0 331-96 571-418 571-163 0-254-75-313-180h-13L365 0H37v-86c117 6 184-31 184-147v-1098c2-112-70-144-184-139v-86h377c-1 217 4 437-8 643h8c57-116 142-205 313-205zm219 565c0-230-32-430-254-434-242-4-278 193-278 436s40 440 280 440c221 0 252-212 252-442" id="aQ"/><path d="M786-645c-4-191-36-363-223-363-76 0-134 30-175 92s-66 152-73 271h471zm123 393c43 21 51 90 17 136C862-29 744 20 588 20c-331 0-471-225-475-561-4-348 134-577 454-577 327 0 443 231 426 583H311c7 242 67 426 305 426 140 0 234-60 293-143" id="aR"/><path d="M844-1331c2-112-71-145-185-139v-86h377v1331c-2 112 71 145 185 139V0H874l-22-184h-8C786-68 701 20 530 20c-321 0-417-237-417-567 0-331 95-571 417-571 163 0 254 76 314 180h12c-10-128-14-255-12-393zM563-987c-219 0-252 212-252 442 0 145 20 254 59 326s104 108 195 108c242 2 279-192 279-436s-41-440-281-440" id="aS"/><path d="M434-233c-3 120 73 154 195 147V0H47v-86c118 6 195-21 195-137v-649c2-108-66-143-174-140v-86h366v865zM330-1303c-79 0-117-45-117-127s37-126 117-126c79 0 116 46 116 126 0 81-37 127-116 127" id="aT"/><path d="M434-223c-3 108 66 141 174 137V0H57v-86c118 6 185-31 185-147v-639c2-108-66-143-174-140v-86h331l27 166h10c63-113 148-188 320-186 244 3 343 152 344 401v484c-4 110 54 152 164 147V0H907v-707c0-170-55-282-225-280-187 3-248 145-248 332v432" id="aU"/><path d="M956-1161c125-12 164 158 62 205-14 6-30 8-49 8 9-84-106-83-156-45 48 62 81 134 80 248-2 265-188 381-475 346-48 26-98 54-99 125-1 68 58 77 127 77h232c215 1 338 97 338 306 0 294-237 379-543 383-249 3-426-81-426-299C47 28 162-41 303-70c-62-29-113-79-113-168 0-105 57-142 134-192-112-50-185-152-185-309 0-249 134-379 385-379 97 0 179 25 234 67 49-50 103-100 198-110zM438-14c-139-3-225 52-225 194 0 158 102 212 264 211 212-1 363-46 371-248C856-58 624-10 438-14zm78-1004c-150 0-184 109-184 273 0 159 39 250 186 253 149 3 184-105 182-256-2-165-33-270-184-270" id="aV"/><g id="g"><use transform="matrix(0.009008338296605125,0,0,0.009008338296605125,0,0)" xlink:href="#aP"/><use transform="matrix(0.009008338296605125,0,0,0.009008338296605125,11.494639666468137,0)" xlink:href="#aK"/><use transform="matrix(0.009008338296605125,0,0,0.009008338296605125,28.925774270399057,0)" xlink:href="#aQ"/><use transform="matrix(0.009008338296605125,0,0,0.009008338296605125,40.249255509231695,0)" xlink:href="#aR"/><use transform="matrix(0.009008338296605125,0,0,0.009008338296605125,50.122394282310914,0)" xlink:href="#aS"/><use transform="matrix(0.009008338296605125,0,0,0.009008338296605125,61.44587552114356,0)" xlink:href="#aS"/><use transform="matrix(0.009008338296605125,0,0,0.009008338296605125,72.7693567599762,0)" xlink:href="#aT"/><use transform="matrix(0.009008338296605125,0,0,0.009008338296605125,78.66981834425256,0)" xlink:href="#aU"/><use transform="matrix(0.009008338296605125,0,0,0.009008338296605125,90.56983323406794,0)" xlink:href="#aV"/></g><path d="M868-871c27-98-34-147-137-141v-86h426v86c-114-4-130 76-162 160C865-510 751-153 616 182c-65 163-156 280-360 302-50 6-113 8-178 8v-97c285-2 394-182 461-403L160-903c-28-65-56-114-152-109v-86h492v86c-114-14-152 77-113 174 88 217 187 419 248 662h6c62-238 163-461 227-695" id="aW"/><path d="M66 168C309 28 379-267 379-649s-70-676-313-815v-92c355 132 526 415 526 907 0 361-85 617-285 775-67 53-147 99-241 136v-94" id="aX"/><g id="h"><use transform="matrix(0.009008338296605125,0,0,0.009008338296605125,0,0)" xlink:href="#aI"/><use transform="matrix(0.009008338296605125,0,0,0.009008338296605125,11.323481238832642,0)" xlink:href="#aM"/><use transform="matrix(0.009008338296605125,0,0,0.009008338296605125,21.710095294818352,0)" xlink:href="#aL"/><use transform="matrix(0.009008338296605125,0,0,0.009008338296605125,33.033576533650994,0)" xlink:href="#aM"/><use transform="matrix(0.009008338296605125,0,0,0.009008338296605125,43.420190589636704,0)" xlink:href="#aN"/><use transform="matrix(0.009008338296605125,0,0,0.009008338296605125,52.500595592614665,0)" xlink:href="#aT"/><use transform="matrix(0.009008338296605125,0,0,0.009008338296605125,58.40105717689102,0)" xlink:href="#aO"/><use transform="matrix(0.009008338296605125,0,0,0.009008338296605125,64.89606908874332,0)" xlink:href="#aW"/><use transform="matrix(0.009008338296605125,0,0,0.009008338296605125,75.31871649791545,0)" xlink:href="#aX"/></g><path d="M479-223C473-90 582-80 715-86V0H78v-86c122 7 194-27 194-147v-1004c3-115-76-146-194-139v-86h575c309 2 504 125 504 428 0 321-213 462-549 465H479v346zm457-803c0-225-92-342-318-338H479v698h109c246 7 348-114 348-360" id="aY"/><path d="M434-223C430-95 529-79 659-86V0H68v-86c112 4 174-35 174-147v-639c2-108-66-143-174-140v-86h315l39 203h10c50-120 106-223 281-223 151 0 257 68 211 208-21 64-90 87-181 87-2-101-16-160-108-160-128 0-157 140-183 255-33 148-12 333-18 505" id="aZ"/><path d="M221-872c2-108-66-143-174-140v-86h367V16c2 313-123 488-439 476v-97c213 5 246-165 246-377v-890zm88-431c-79 0-116-45-116-127 0-81 36-126 116-126s117 45 117 126-38 127-117 127" id="ba"/><g id="i"><use transform="matrix(0.0117026019291562,0,0,0.0117026019291562,0,0)" xlink:href="#aY"/><use transform="matrix(0.0117026019291562,0,0,0.0117026019291562,14.476118586366217,0)" xlink:href="#aZ"/><use transform="matrix(0.0117026019291562,0,0,0.0117026019291562,25.53507740941883,0)" xlink:href="#aJ"/><use transform="matrix(0.0117026019291562,0,0,0.0117026019291562,39.36755288968146,0)" xlink:href="#ba"/><use transform="matrix(0.0117026019291562,0,0,0.0117026019291562,46.55295047418337,0)" xlink:href="#aR"/><use transform="matrix(0.0117026019291562,0,0,0.0117026019291562,59.37900218853856,0)" xlink:href="#aN"/><use transform="matrix(0.0117026019291562,0,0,0.0117026019291562,71.175224933128,0)" xlink:href="#aO"/><use transform="matrix(0.0117026019291562,0,0,0.0117026019291562,79.61280092404962,0)" xlink:href="#aT"/><use transform="matrix(0.0117026019291562,0,0,0.0117026019291562,87.27800518764693,0)" xlink:href="#aJ"/><use transform="matrix(0.0117026019291562,0,0,0.0117026019291562,101.11048066790954,0)" xlink:href="#aU"/></g><g id="j"><use transform="matrix(0.0117026019291562,0,0,0.0117026019291562,0,0)" xlink:href="#aO"/><use transform="matrix(0.0117026019291562,0,0,0.0117026019291562,7.957769311826216,0)" xlink:href="#aJ"/></g><g id="k"><use transform="matrix(0.0117026019291562,0,0,0.0117026019291562,0,0)" xlink:href="#aI"/><use transform="matrix(0.0117026019291562,0,0,0.0117026019291562,14.23036394585394,0)" xlink:href="#aJ"/><use transform="matrix(0.0117026019291562,0,0,0.0117026019291562,28.06283942611656,0)" xlink:href="#aK"/><use transform="matrix(0.0117026019291562,0,0,0.0117026019291562,50.70737415903381,0)" xlink:href="#aK"/><use transform="matrix(0.0117026019291562,0,0,0.0117026019291562,73.35190889195107,0)" xlink:href="#aJ"/><use transform="matrix(0.0117026019291562,0,0,0.0117026019291562,87.1843843722137,0)" xlink:href="#aU"/></g><g id="l"><use transform="matrix(0.0117026019291562,0,0,0.0117026019291562,0,0)" xlink:href="#aP"/><use transform="matrix(0.0117026019291562,0,0,0.0117026019291562,14.932520061603308,0)" xlink:href="#aK"/><use transform="matrix(0.0117026019291562,0,0,0.0117026019291562,37.577054794520556,0)" xlink:href="#aQ"/><use transform="matrix(0.0117026019291562,0,0,0.0117026019291562,52.2872254194699,0)" xlink:href="#aR"/><use transform="matrix(0.0117026019291562,0,0,0.0117026019291562,65.1132771338251,0)" xlink:href="#aS"/><use transform="matrix(0.0117026019291562,0,0,0.0117026019291562,79.82344775877445,0)" xlink:href="#aS"/><use transform="matrix(0.0117026019291562,0,0,0.0117026019291562,94.53361838372379,0)" xlink:href="#aT"/><use transform="matrix(0.0117026019291562,0,0,0.0117026019291562,102.19882264732111,0)" xlink:href="#aU"/><use transform="matrix(0.0117026019291562,0,0,0.0117026019291562,117.65795979573646,0)" xlink:href="#aV"/></g><path d="M1010-391c0 288-209 411-504 411-227 0-400-72-408-288-3-85 58-140 148-138 13 184 83 323 276 326 176 3 296-86 293-258-4-208-164-249-317-319-197-90-377-181-377-455 0-256 189-371 448-371 165 0 292 46 357 143 39 57 33 148-18 186-30 22-68 34-117 34-4-156-72-260-230-260-155 0-250 80-250 233 0 217 160 262 318 332 152 68 291 135 355 283 17 42 26 88 26 141" id="bb"/><g id="m"><use transform="matrix(0.0117026019291562,0,0,0.0117026019291562,0,0)" xlink:href="#bb"/><use transform="matrix(0.0117026019291562,0,0,0.0117026019291562,13.036698549080006,0)" xlink:href="#aL"/><use transform="matrix(0.0117026019291562,0,0,0.0117026019291562,27.746869174029356,0)" xlink:href="#aM"/><use transform="matrix(0.0117026019291562,0,0,0.0117026019291562,41.23996919834645,0)" xlink:href="#aN"/><use transform="matrix(0.0117026019291562,0,0,0.0117026019291562,53.0361919429359,0)" xlink:href="#aR"/></g><path d="M248-1223c1-83-28-131-107-131H57v-108c347 13 826-44 1037 90 97 62 147 154 147 282 0 190-114 265-258 312v10c178 49 320 147 320 367 0 135-49 235-147 301S912 0 717 0H57v-109h84c83 3 107-49 107-133v-981zm710 815c0-188-59-298-247-294H571v577h136c187 6 251-95 251-283zm-61-682c0-177-76-253-252-247h-74v510h78c181 6 248-82 248-263" id="bc"/><path d="M350-1282c-103 0-174-45-174-148 0-104 70-147 174-147 103 0 176 44 176 147 0 102-74 148-176 148zM516-242c0 102 66 138 170 133V0H35v-109c104 5 170-31 170-133v-622c0-98-69-130-170-125v-109h481v856" id="bd"/><path d="M631-1124c358 0 526 209 528 571 2 373-172 573-534 573C267 20 98-190 96-553c-2-374 172-571 535-571zM527-966c-131 91-126 390-101 605 16 136 58 252 203 252 203 0 213-228 213-444 0-180-15-339-115-413-51-37-148-36-200 0" id="be"/><path d="M1169-254c-4 106 37 152 144 145V0H858v-674c-2-147-22-276-164-276-152 0-178 160-178 317v391c-3 102 51 138 154 133V0H41v-109c107 5 164-34 164-141v-612c3-102-52-138-154-133v-103h430l27 146h10c58-113 144-176 313-172 157 3 265 55 310 172h18c58-115 154-175 326-172 240 4 338 149 338 395v475c-4 105 37 152 143 145V0h-455v-674c-3-152-24-276-163-276-145 0-179 143-179 293v403" id="bf"/><path d="M682-968c-75-53-166-16-210 62-32 57-53 140-56 249h354c-1-134-12-257-88-311zm4 835c147 0 236-69 289-166 63 29 71 123 31 183C939-17 799 20 627 20 270 20 96-185 96-543c0-359 153-581 508-581 315 0 475 175 479 493v105H412c10 217 60 393 274 393" id="bg"/><path d="M811-1321c2-107-74-131-182-127v-108h493v1304c-2 111 68 146 178 143V0H903l-57-160h-19C768-53 677 20 512 20 192 20 94-217 94-547s95-575 414-575c154 0 247 67 305 164h14c-9-120-19-232-16-363zM600-133c203 0 211-207 211-418 0-170-13-323-109-393-48-34-143-39-190 0-88 74-102 228-102 395 0 139 15 244 44 313s77 103 146 103" id="bh"/><path d="M952-299c53 28 65 116 26 173C912-25 777 20 604 20 249 20 96-183 96-545c0-366 147-579 502-579 170 0 310 34 380 130 46 63 27 167-26 205-49 36-119 55-213 54-1-102-14-196-69-243-36-31-106-28-144 0-103 75-114 241-114 431 0 139 19 242 57 311s100 103 186 103c149 0 244-68 297-166" id="bi"/><path d="M526-129c139 0 193-116 193-262v-154c-144 3-272 20-298 142-6 28-11 61-11 98 1 103 24 176 116 176zm193-524c-6-153 30-348-127-346-115 1-136 103-137 221-92 0-160-13-207-31-80-31-88-141-36-202 75-88 224-112 388-113 266-2 430 83 430 348v522c-3 99 29 152 131 145V0H780l-43-141h-18C646-52 578 24 414 20 206 14 92-101 92-313c0-254 188-323 459-334" id="bj"/><path d="M516-242c0 102 66 138 170 133V0H35v-109c104 5 170-31 170-133v-1081c0-98-69-130-170-125v-108h481v1314" id="bk"/><g id="n"><use transform="matrix(0.015190972222222224,0,0,0.015190972222222224,0,0)" xlink:href="#bc"/><use transform="matrix(0.015190972222222224,0,0,0.015190972222222224,20.90277777777778,0)" xlink:href="#bd"/><use transform="matrix(0.015190972222222224,0,0,0.015190972222222224,31.855468750000004,0)" xlink:href="#be"/><use transform="matrix(0.015190972222222224,0,0,0.015190972222222224,50.920138888888886,0)" xlink:href="#bf"/><use transform="matrix(0.015190972222222224,0,0,0.015190972222222224,81.59071180555556,0)" xlink:href="#bg"/><use transform="matrix(0.015190972222222224,0,0,0.015190972222222224,99.34895833333334,0)" xlink:href="#bh"/><use transform="matrix(0.015190972222222224,0,0,0.015190972222222224,119.53776041666669,0)" xlink:href="#bd"/><use transform="matrix(0.015190972222222224,0,0,0.015190972222222224,130.4904513888889,0)" xlink:href="#bi"/><use transform="matrix(0.015190972222222224,0,0,0.015190972222222224,146.88151041666669,0)" xlink:href="#bj"/><use transform="matrix(0.015190972222222224,0,0,0.015190972222222224,165.52083333333334,0)" xlink:href="#bk"/></g><path d="M678-1354c-83-3-108 49-107 133v478c124-137 254-270 373-411 34-40 62-77 62-142 0-58-46-57-115-60v-106h555v106c-148 8-219 96-295 180L881-879l381 605c59 86 104 164 241 165V0c-191 0-383 7-483-82-34-30-57-65-82-106L662-659l-91 71v346c-1 84 24 133 107 133h86V0H57v-109h86c79 3 105-42 105-122v-998c1-82-26-125-105-125H57v-108h707v108h-86" id="bl"/><path d="M1169-254c-4 106 37 152 144 145V0H858v-674c-2-147-22-276-164-276-152 0-178 160-178 317v391c-3 102 51 138 154 133V0H41v-109c107 5 164-34 164-141v-606c3-102-52-138-154-133v-109h430l27 146h10c58-113 144-175 313-172 240 5 338 149 338 395v475" id="bm"/><path d="M594-989c-86 0-162 3-150 86 31 222 123 404 154 635h6c16-88 35-149 66-236l209-583h133l200 604c28 80 40 139 54 215h6c38-204 111-378 158-574 25-106-33-155-144-147v-109h469v109c-128-13-150 66-180 160L1311 0h-221L866-680 631 0H408L145-881C123-950 87-993-6-989v-109h600v109" id="bn"/><path d="M989-1176c100-1 171 61 141 162-15 52-67 72-139 72 6-81-87-108-145-64 55 64 100 147 100 261 0 285-225 385-532 352-36 22-74 49-74 104 0 49 44 66 96 66h248c235 2 393 83 393 313 0 316-265 402-594 402-161 0-282-24-361-72S4 300 4 207C4 44 119-17 281-31c-76-32-150-78-150-182 0-121 101-163 182-215-125-48-209-148-209-317 0-256 154-379 428-379 96 0 183 29 244 63 52-55 107-114 213-115zM428 47c-110 0-183 43-182 156 2 128 101 165 241 166 120 0 207-17 262-52s82-86 82-153c0-96-64-117-165-117H428zm96-1048c-124 0-141 127-141 256 0 125 22 237 143 237 124 0 140-114 140-240 0-130-17-253-142-253" id="bo"/><g id="o"><use transform="matrix(0.015190972222222224,0,0,0.015190972222222224,0,0)" xlink:href="#bl"/><use transform="matrix(0.015190972222222224,0,0,0.015190972222222224,22.832031250000004,0)" xlink:href="#bm"/><use transform="matrix(0.015190972222222224,0,0,0.015190972222222224,43.58289930555556,0)" xlink:href="#be"/><use transform="matrix(0.015190972222222224,0,0,0.015190972222222224,62.34375000000001,0)" xlink:href="#bn"/><use transform="matrix(0.015190972222222224,0,0,0.015190972222222224,88.66970486111111,0)" xlink:href="#bk"/><use transform="matrix(0.015190972222222224,0,0,0.015190972222222224,99.62239583333334,0)" xlink:href="#bg"/><use transform="matrix(0.015190972222222224,0,0,0.015190972222222224,117.38064236111111,0)" xlink:href="#bh"/><use transform="matrix(0.015190972222222224,0,0,0.015190972222222224,137.56944444444446,0)" xlink:href="#bo"/><use transform="matrix(0.015190972222222224,0,0,0.015190972222222224,154.68967013888889,0)" xlink:href="#bg"/></g><path d="M1370-90C1220-22 1072 20 866 20c-492 0-753-265-753-753 0-363 164-592 433-695 241-92 683-73 811 90 57 72 27 178-36 216-50 30-114 51-197 51-2-174-80-281-254-281-337 0-413 275-413 619 0 354 90 613 440 614 54 0 105-4 150-14v-301c2-116-57-150-173-146v-108h644v108c-113-11-148 47-148 154v336" id="bp"/><path d="M516-246c-4 127 81 146 209 137V0H41v-109c110 5 164-37 164-147v-594c3-104-49-145-154-139v-109h414l41 160h10c46-115 125-184 289-184 142 0 235 41 235 166 0 137-111 200-260 198-1-92-10-170-100-170-129 0-152 146-162 271-11 134 3 274-2 411" id="bq"/><path d="M508 250c-2 110 76 140 190 133v109H27V383c104 5 170-31 170-133V-846c3-105-46-149-152-143v-109h401l37 160h9c59-105 150-180 313-180 324 0 420 241 420 573 0 329-93 565-412 570-159 2-247-66-307-164h-14c13 122 18 252 16 389zm0-795c0 210 7 418 209 418 69 0 115-35 147-103 57-120 56-503 0-626-33-71-78-109-145-109-201 0-211 211-211 420" id="br"/><path d="M1169-254c-4 106 37 152 144 145V0H858v-674c-2-147-22-276-164-276-152 0-178 160-178 317v391c-3 102 51 138 154 133V0H41v-109c107 5 164-34 164-141v-1073c0-98-69-130-170-125v-108h481c-1 203 6 416-16 598h18c56-113 145-169 313-166 240 5 338 149 338 395v475" id="bs"/><g id="p"><use transform="matrix(0.015190972222222224,0,0,0.015190972222222224,0,0)" xlink:href="#bp"/><use transform="matrix(0.015190972222222224,0,0,0.015190972222222224,23.925781250000004,0)" xlink:href="#bq"/><use transform="matrix(0.015190972222222224,0,0,0.015190972222222224,40.1953125,0)" xlink:href="#bj"/><use transform="matrix(0.015190972222222224,0,0,0.015190972222222224,58.83463541666667,0)" xlink:href="#br"/><use transform="matrix(0.015190972222222224,0,0,0.015190972222222224,78.90190972222223,0)" xlink:href="#bs"/></g><path d="M371-432c-187 0-271-106-271-297 0-192 84-297 271-297 184 0 270 106 270 297 0 190-86 297-270 297" id="bt"/><use transform="matrix(0.010850694444444444,0,0,0.010850694444444444,0,0)" xlink:href="#bt" id="q"/><path d="M414-233c-4 120 72 154 194 147V0H27v-86c122 7 194-28 194-147v-1098c3-115-76-146-194-139v-86h387v1323" id="bu"/><g id="r"><use transform="matrix(0.010850694444444444,0,0,0.010850694444444444,0,0)" xlink:href="#aI"/><use transform="matrix(0.010850694444444444,0,0,0.010850694444444444,13.639322916666666,0)" xlink:href="#bu"/><use transform="matrix(0.010850694444444444,0,0,0.010850694444444444,20.52951388888889,0)" xlink:href="#aT"/><use transform="matrix(0.010850694444444444,0,0,0.010850694444444444,27.63671875,0)" xlink:href="#aU"/><use transform="matrix(0.010850694444444444,0,0,0.010850694444444444,41.970486111111114,0)" xlink:href="#aT"/><use transform="matrix(0.010850694444444444,0,0,0.010850694444444444,49.07769097222223,0)" xlink:href="#aN"/><use transform="matrix(0.010850694444444444,0,0,0.010850694444444444,60.01519097222223,0)" xlink:href="#aM"/><use transform="matrix(0.010850694444444444,0,0,0.010850694444444444,72.52604166666667,0)" xlink:href="#bu"/></g><path d="M834-301C834-70 665 20 430 20 250 20 92-26 92-197c0-88 47-135 129-141 1 157 63 257 221 260 156 3 257-97 214-252-47-85-142-109-240-157-153-75-310-122-310-340 0-212 169-289 386-289 130 0 232 36 280 116 31 53 24 126-20 162-26 22-62 33-109 33 0-130-49-217-176-217-120 1-195 48-195 164 0 149 143 163 254 217 154 74 308 124 308 340" id="bv"/><g id="s"><use transform="matrix(0.010850694444444444,0,0,0.010850694444444444,0,0)" xlink:href="#aI"/><use transform="matrix(0.010850694444444444,0,0,0.010850694444444444,13.194444444444445,0)" xlink:href="#aJ"/><use transform="matrix(0.010850694444444444,0,0,0.010850694444444444,26.01996527777778,0)" xlink:href="#aU"/><use transform="matrix(0.010850694444444444,0,0,0.010850694444444444,40.353732638888886,0)" xlink:href="#aN"/><use transform="matrix(0.010850694444444444,0,0,0.010850694444444444,51.291232638888886,0)" xlink:href="#aR"/><use transform="matrix(0.010850694444444444,0,0,0.010850694444444444,63.18359375,0)" xlink:href="#aL"/><use transform="matrix(0.010850694444444444,0,0,0.010850694444444444,76.82291666666667,0)" xlink:href="#aO"/><use transform="matrix(0.010850694444444444,0,0,0.010850694444444444,84.64626736111111,0)" xlink:href="#bv"/></g><path d="M307-86c126 7 215-13 215-137v-1137c-117 7-264-23-322 50-39 48-42 130-53 206H41l10-358h1153l10 358h-106c-10-135-29-256-180-256H729v1127c-5 128 84 155 215 147V0H307v-86" id="bw"/><g id="t"><use transform="matrix(0.010850694444444444,0,0,0.010850694444444444,0,0)" xlink:href="#bw"/><use transform="matrix(0.010850694444444444,0,0,0.010850694444444444,13.617621527777777,0)" xlink:href="#aW"/><use transform="matrix(0.010850694444444444,0,0,0.010850694444444444,26.171875,0)" xlink:href="#aL"/><use transform="matrix(0.010850694444444444,0,0,0.010850694444444444,39.811197916666664,0)" xlink:href="#aR"/><use transform="matrix(0.010850694444444444,0,0,0.010850694444444444,51.70355902777778,0)" xlink:href="#aS"/></g><path d="M1155-1067c0 217-140 315-301 373l281 444c62 88 98 158 221 164V0c-166 1-292-2-364-90-20-24-43-55-66-94L649-645H479v422c-3 116 77 143 195 137V0H78v-86c117 6 194-21 194-137v-1014c3-115-76-146-194-139v-86h551c321 0 526 100 526 395zm-219 6c0-217-101-309-318-303H479v623h144c221 5 313-101 313-320" id="bx"/><g id="u"><use transform="matrix(0.010850694444444444,0,0,0.010850694444444444,0,0)" xlink:href="#bx"/><use transform="matrix(0.010850694444444444,0,0,0.010850694444444444,14.127604166666666,0)" xlink:href="#aR"/><use transform="matrix(0.010850694444444444,0,0,0.010850694444444444,26.01996527777778,0)" xlink:href="#bu"/><use transform="matrix(0.010850694444444444,0,0,0.010850694444444444,32.91015625,0)" xlink:href="#aM"/><use transform="matrix(0.010850694444444444,0,0,0.010850694444444444,45.20399305555556,0)" xlink:href="#aO"/><use transform="matrix(0.010850694444444444,0,0,0.010850694444444444,53.02734375,0)" xlink:href="#aT"/><use transform="matrix(0.010850694444444444,0,0,0.010850694444444444,60.13454861111112,0)" xlink:href="#aJ"/><use transform="matrix(0.010850694444444444,0,0,0.010850694444444444,72.96006944444444,0)" xlink:href="#aU"/><use transform="matrix(0.010850694444444444,0,0,0.010850694444444444,87.29383680555556,0)" xlink:href="#bv"/></g><use transform="matrix(0.010850694444444444,0,0,0.010850694444444444,0,0)" xlink:href="#bt" id="v"/><g id="w"><use transform="matrix(0.010850694444444444,0,0,0.010850694444444444,0,0)" xlink:href="#bb"/><use transform="matrix(0.010850694444444444,0,0,0.010850694444444444,12.08767361111111,0)" xlink:href="#aR"/><use transform="matrix(0.010850694444444444,0,0,0.010850694444444444,23.98003472222222,0)" xlink:href="#aR"/><use transform="matrix(0.010850694444444444,0,0,0.010850694444444444,35.87239583333333,0)" xlink:href="#aS"/></g><g id="x"><use transform="matrix(0.010850694444444444,0,0,0.010850694444444444,0,0)" xlink:href="#aP"/><use transform="matrix(0.010850694444444444,0,0,0.010850694444444444,13.84548611111111,0)" xlink:href="#aS"/><use transform="matrix(0.010850694444444444,0,0,0.010850694444444444,27.48480902777778,0)" xlink:href="#aV"/><use transform="matrix(0.010850694444444444,0,0,0.010850694444444444,39.225260416666664,0)" xlink:href="#aR"/><use transform="matrix(0.010850694444444444,0,0,0.010850694444444444,51.11762152777778,0)" xlink:href="#bv"/></g><path d="M1505-1376c-122-7-194 27-194 147V0h-146L397-1180v947c-3 120 73 154 195 147V0H78v-86c122 7 194-27 194-147v-1004c3-115-76-146-194-139v-86h375l733 1132v-907c3-116-76-146-195-139v-86h514v86" id="by"/><path d="M414-223c-3 108 66 141 174 137V0H37v-86c117 6 184-31 184-147v-1098c2-112-70-144-184-139v-86h377c-3 208 7 429-8 624h10c61-124 162-186 301-186 253 1 362 144 362 401v484c-3 110 54 152 164 147V0H887v-707c0-170-55-283-225-280-186 3-248 143-248 332v432" id="bz"/><g id="y"><use transform="matrix(0.010850694444444444,0,0,0.010850694444444444,0,0)" xlink:href="#by"/><use transform="matrix(0.010850694444444444,0,0,0.010850694444444444,16.742621527777775,0)" xlink:href="#aR"/><use transform="matrix(0.010850694444444444,0,0,0.010850694444444444,28.63498263888889,0)" xlink:href="#aT"/><use transform="matrix(0.010850694444444444,0,0,0.010850694444444444,35.7421875,0)" xlink:href="#aV"/><use transform="matrix(0.010850694444444444,0,0,0.010850694444444444,47.69965277777778,0)" xlink:href="#bz"/><use transform="matrix(0.010850694444444444,0,0,0.010850694444444444,61.80555555555555,0)" xlink:href="#aQ"/><use transform="matrix(0.010850694444444444,0,0,0.010850694444444444,75.44487847222223,0)" xlink:href="#aJ"/><use transform="matrix(0.010850694444444444,0,0,0.010850694444444444,88.27039930555556,0)" xlink:href="#aZ"/></g><path d="M569-1012c-63 1-123 4-123 60 0 43 23 60 48 94l135 184c47-72 105-140 143-219 9-21 14-40 14-59 0-56-58-59-116-60v-86h448v86c-127-7-170 57-225 131L682-600l301 405c54 66 89 110 191 109V0H645v-86c110 6 163-43 118-118-57-95-135-185-200-275-60 87-128 167-180 261-10 19-18 42-18 68 0 62 57 62 133 64V0H10v-86c134 8 184-56 242-131l258-334-258-352c-56-60-97-113-203-109v-86h520v86" id="bA"/><g id="z"><use transform="matrix(0.010850694444444444,0,0,0.010850694444444444,0,0)" xlink:href="#aP"/><use transform="matrix(0.010850694444444444,0,0,0.010850694444444444,13.84548611111111,0)" xlink:href="#bA"/><use transform="matrix(0.010850694444444444,0,0,0.010850694444444444,26.692708333333332,0)" xlink:href="#aL"/><use transform="matrix(0.010850694444444444,0,0,0.010850694444444444,40.33203125,0)" xlink:href="#aM"/><use transform="matrix(0.010850694444444444,0,0,0.010850694444444444,52.84288194444444,0)" xlink:href="#aU"/><use transform="matrix(0.010850694444444444,0,0,0.010850694444444444,67.17664930555556,0)" xlink:href="#bv"/><use transform="matrix(0.010850694444444444,0,0,0.010850694444444444,77.20269097222223,0)" xlink:href="#aT"/><use transform="matrix(0.010850694444444444,0,0,0.010850694444444444,84.30989583333334,0)" xlink:href="#aJ"/><use transform="matrix(0.010850694444444444,0,0,0.010850694444444444,97.13541666666666,0)" xlink:href="#aU"/></g><g id="A"><use transform="matrix(0.010850694444444444,0,0,0.010850694444444444,0,0)" xlink:href="#aP"/><use transform="matrix(0.010850694444444444,0,0,0.010850694444444444,13.84548611111111,0)" xlink:href="#aS"/><use transform="matrix(0.010850694444444444,0,0,0.010850694444444444,27.48480902777778,0)" xlink:href="#aV"/><use transform="matrix(0.010850694444444444,0,0,0.010850694444444444,39.225260416666664,0)" xlink:href="#aR"/></g><path d="M1649-233c-4 120 72 154 194 147V0h-545v-86c102 5 154-32 154-129v-1094L983 0H872L397-1305v1072c-4 108 46 153 154 147V0H78v-86c117 6 194-21 194-137v-1014c3-115-76-146-194-139v-86h467L969-291l420-1171h454v86c-122-7-194 27-194 147v996" id="bB"/><g id="B"><use transform="matrix(0.010850694444444444,0,0,0.010850694444444444,0,0)" xlink:href="#aI"/><use transform="matrix(0.010850694444444444,0,0,0.010850694444444444,13.639322916666666,0)" xlink:href="#aM"/><use transform="matrix(0.010850694444444444,0,0,0.010850694444444444,26.15017361111111,0)" xlink:href="#aL"/><use transform="matrix(0.010850694444444444,0,0,0.010850694444444444,39.78949652777778,0)" xlink:href="#aH"/><use transform="matrix(0.010850694444444444,0,0,0.010850694444444444,47.482638888888886,0)" xlink:href="#bB"/><use transform="matrix(0.010850694444444444,0,0,0.010850694444444444,68.32682291666666,0)" xlink:href="#aR"/><use transform="matrix(0.010850694444444444,0,0,0.010850694444444444,80.21918402777777,0)" xlink:href="#aK"/><use transform="matrix(0.010850694444444444,0,0,0.010850694444444444,101.21527777777777,0)" xlink:href="#aJ"/><use transform="matrix(0.010850694444444444,0,0,0.010850694444444444,114.0407986111111,0)" xlink:href="#aZ"/><use transform="matrix(0.010850694444444444,0,0,0.010850694444444444,124.72873263888887,0)" xlink:href="#aW"/></g><path d="M442-233C435-92 546-78 688-86V0H55v-86c123 7 195-27 195-147v-768H63v-97h187v-102c4-240 124-377 362-377 124 0 225 14 272 85 33 50 8 123-32 144-31 17-72 29-121 29-2-96-37-164-135-164-176 0-152 207-154 385h289v97H442v768" id="bC"/><g id="C"><use transform="matrix(0.010850694444444444,0,0,0.010850694444444444,0,0)" xlink:href="#bv"/><use transform="matrix(0.010850694444444444,0,0,0.010850694444444444,10.026041666666666,0)" xlink:href="#aM"/><use transform="matrix(0.010850694444444444,0,0,0.010850694444444444,22.53689236111111,0)" xlink:href="#bC"/><use transform="matrix(0.010850694444444444,0,0,0.010850694444444444,30.52300347222222,0)" xlink:href="#aR"/><use transform="matrix(0.010850694444444444,0,0,0.010850694444444444,42.41536458333333,0)" xlink:href="#aX"/></g><path d="M1493-1354c-81-2-104 49-104 133V0h-189L401-1128v886c0 84 23 133 105 133h86V0H57v-109h86c82 2 105-49 105-133v-987c1-81-27-125-105-125H57v-108h455l723 1022v-789c1-81-27-125-105-125h-86v-108h535v108h-86" id="bD"/><path d="M51-451v-215h533v215H51" id="bE"/><path d="M508-324c1 114 29 177 135 179 53 0 102-9 145-19v133C712 3 611 19 498 20 289 22 197-91 197-303v-655H43v-105c87 2 160-42 201-86 42-44 73-112 94-203h170v254h262v140H508v634" id="bF"/><g id="D"><use transform="matrix(0.015190972222222224,0,0,0.015190972222222224,0,0)" xlink:href="#bD"/><use transform="matrix(0.015190972222222224,0,0,0.015190972222222224,24.214409722222225,0)" xlink:href="#be"/><use transform="matrix(0.015190972222222224,0,0,0.015190972222222224,43.279079861111114,0)" xlink:href="#bh"/><use transform="matrix(0.015190972222222224,0,0,0.015190972222222224,63.46788194444445,0)" xlink:href="#bg"/><use transform="matrix(0.015190972222222224,0,0,0.015190972222222224,82.15277777777777,0)" xlink:href="#bE"/><use transform="matrix(0.015190972222222224,0,0,0.015190972222222224,92.72569444444444,0)" xlink:href="#bi"/><use transform="matrix(0.015190972222222224,0,0,0.015190972222222224,109.11675347222223,0)" xlink:href="#bg"/><use transform="matrix(0.015190972222222224,0,0,0.015190972222222224,126.87500000000001,0)" xlink:href="#bm"/><use transform="matrix(0.015190972222222224,0,0,0.015190972222222224,147.32204861111111,0)" xlink:href="#bF"/><use transform="matrix(0.015190972222222224,0,0,0.015190972222222224,159.91536458333334,0)" xlink:href="#bq"/><use transform="matrix(0.015190972222222224,0,0,0.015190972222222224,176.18489583333334,0)" xlink:href="#bd"/><use transform="matrix(0.015190972222222224,0,0,0.015190972222222224,187.13758680555557,0)" xlink:href="#bi"/></g><path d="M571-1358c-151-6-245 124-188 270 69 176 346 212 503 314 119 77 212 161 212 346 0 232-143 355-326 415-190 62-490 28-608-60-76-57-135-174-84-282 33-69 111-102 213-102 4 206 81 355 280 355 151 0 254-75 254-222 0-135-93-184-191-234-232-119-539-172-534-513 3-214 133-332 302-383 213-65 522-27 610 116 45 73 23 177-36 214-47 29-110 49-190 49-8-151-64-277-217-283" id="bG"/><path d="M1161-238c-4 102 49 136 154 129V0H907l-45-145h-10C792-36 695 23 528 20c-234-5-331-151-331-405v-459c4-105-39-151-144-145v-109h455v656c3 146 15 288 156 288 156 0 186-148 186-311v-393c3-101-53-136-154-131v-109h465v860" id="bH"/><path d="M821-1122c319 4 412 240 412 569 0 332-96 573-420 573-163 0-254-75-313-180h-19L424 0H35v-109c108 4 170-35 170-143v-1059c2-106-64-140-170-137v-108h481c-1 204 6 415-16 598h14c59-99 149-166 307-164zM516-553c0 209 10 420 211 420 67 0 113-38 146-109 57-123 58-506 0-626-33-68-79-103-148-103-202 0-209 208-209 418" id="bI"/><g id="E"><use transform="matrix(0.015190972222222224,0,0,0.015190972222222224,0,0)" xlink:href="#bG"/><use transform="matrix(0.015190972222222224,0,0,0.015190972222222224,17.925347222222225,0)" xlink:href="#bH"/><use transform="matrix(0.015190972222222224,0,0,0.015190972222222224,38.676215277777786,0)" xlink:href="#bI"/><use transform="matrix(0.015190972222222224,0,0,0.015190972222222224,58.86501736111112,0)" xlink:href="#bo"/><use transform="matrix(0.015190972222222224,0,0,0.015190972222222224,76.28906250000001,0)" xlink:href="#bq"/><use transform="matrix(0.015190972222222224,0,0,0.015190972222222224,92.55859375000001,0)" xlink:href="#bj"/><use transform="matrix(0.015190972222222224,0,0,0.015190972222222224,111.19791666666669,0)" xlink:href="#bo"/><use transform="matrix(0.015190972222222224,0,0,0.015190972222222224,128.62196180555557,0)" xlink:href="#bs"/></g><g id="F"><use transform="matrix(0.015190972222222224,0,0,0.015190972222222224,0,0)" xlink:href="#bG"/><use transform="matrix(0.015190972222222224,0,0,0.015190972222222224,18.229166666666668,0)" xlink:href="#bj"/><use transform="matrix(0.015190972222222224,0,0,0.015190972222222224,36.868489583333336,0)" xlink:href="#bf"/><use transform="matrix(0.015190972222222224,0,0,0.015190972222222224,67.23524305555557,0)" xlink:href="#br"/><use transform="matrix(0.015190972222222224,0,0,0.015190972222222224,87.30251736111113,0)" xlink:href="#bk"/><use transform="matrix(0.015190972222222224,0,0,0.015190972222222224,98.25520833333336,0)" xlink:href="#bg"/><use transform="matrix(0.015190972222222224,0,0,0.015190972222222224,116.01345486111114,0)" xlink:href="#bq"/></g><path d="M571-231c-1 80 27 122 105 122h88V0H57v-109h86c78 2 105-42 105-122v-998c1-81-27-125-105-125H57v-108h660c193 0 335 32 425 97s136 159 136 282c0 215-126 322-279 387l244 420c54 79 90 162 213 167V0c-184 1-347 0-436-91-24-25-49-55-70-93L707-635H571v404zm363-824c0-187-65-291-252-286H571v587h115c189 4 248-113 248-301" id="bJ"/><g id="G"><use transform="matrix(0.015190972222222224,0,0,0.015190972222222224,0,0)" xlink:href="#bJ"/><use transform="matrix(0.015190972222222224,0,0,0.015190972222222224,21.373697916666668,0)" xlink:href="#bg"/><use transform="matrix(0.015190972222222224,0,0,0.015190972222222224,39.13194444444444,0)" xlink:href="#bk"/><use transform="matrix(0.015190972222222224,0,0,0.015190972222222224,50.084635416666664,0)" xlink:href="#bj"/><use transform="matrix(0.015190972222222224,0,0,0.015190972222222224,68.42013888888889,0)" xlink:href="#bF"/><use transform="matrix(0.015190972222222224,0,0,0.015190972222222224,81.01345486111111,0)" xlink:href="#bd"/><use transform="matrix(0.015190972222222224,0,0,0.015190972222222224,91.96614583333334,0)" xlink:href="#be"/><use transform="matrix(0.015190972222222224,0,0,0.015190972222222224,111.03081597222223,0)" xlink:href="#bm"/><use transform="matrix(0.015190972222222224,0,0,0.015190972222222224,131.78168402777777,0)" xlink:href="#bj"/><use transform="matrix(0.015190972222222224,0,0,0.015190972222222224,150.42100694444443,0)" xlink:href="#bk"/></g><g id="H"><use transform="matrix(0.015190972222222224,0,0,0.015190972222222224,0,0)" xlink:href="#bp"/><use transform="matrix(0.015190972222222224,0,0,0.015190972222222224,23.925781250000004,0)" xlink:href="#bq"/><use transform="matrix(0.015190972222222224,0,0,0.015190972222222224,40.1953125,0)" xlink:href="#bj"/><use transform="matrix(0.015190972222222224,0,0,0.015190972222222224,58.83463541666667,0)" xlink:href="#br"/><use transform="matrix(0.015190972222222224,0,0,0.015190972222222224,78.90190972222223,0)" xlink:href="#bs"/></g><path d="M457-733c0 340 76 592 413 590 189-1 297-89 379-195 43 38 45 120 12 178-72 126-231 182-440 180-475-5-708-280-708-753 0-354 144-589 399-695 222-92 634-71 745 90 51 74 23 182-37 220-47 30-110 51-190 51-4-161-63-285-225-285-310 0-348 300-348 619" id="bK"/><path d="M930-930c2-67-73-59-139-59v-109h450v109c-122-15-143 61-174 149L770 0H500L164-891c-23-68-72-101-164-98v-109h635v109c-73-1-154-12-154 65 0 32 11 67 19 90 69 211 158 408 209 637 59-239 148-447 215-677 5-19 6-37 6-56" id="bL"/><g id="I"><use transform="matrix(0.015190972222222224,0,0,0.015190972222222224,0,0)" xlink:href="#bK"/><use transform="matrix(0.015190972222222224,0,0,0.015190972222222224,20.158420138888893,0)" xlink:href="#be"/><use transform="matrix(0.015190972222222224,0,0,0.015190972222222224,39.223090277777786,0)" xlink:href="#bm"/><use transform="matrix(0.015190972222222224,0,0,0.015190972222222224,59.6701388888889,0)" xlink:href="#bL"/><use transform="matrix(0.015190972222222224,0,0,0.015190972222222224,78.21831597222223,0)" xlink:href="#be"/><use transform="matrix(0.015190972222222224,0,0,0.015190972222222224,97.28298611111111,0)" xlink:href="#bk"/><use transform="matrix(0.015190972222222224,0,0,0.015190972222222224,108.23567708333334,0)" xlink:href="#bH"/><use transform="matrix(0.015190972222222224,0,0,0.015190972222222224,128.9865451388889,0)" xlink:href="#bF"/><use transform="matrix(0.015190972222222224,0,0,0.015190972222222224,141.57986111111114,0)" xlink:href="#bd"/><use transform="matrix(0.015190972222222224,0,0,0.015190972222222224,152.53255208333337,0)" xlink:href="#be"/><use transform="matrix(0.015190972222222224,0,0,0.015190972222222224,171.59722222222226,0)" xlink:href="#bm"/><use transform="matrix(0.015190972222222224,0,0,0.015190972222222224,192.34809027777783,0)" xlink:href="#bj"/><use transform="matrix(0.015190972222222224,0,0,0.015190972222222224,210.98741319444449,0)" xlink:href="#bk"/></g><path d="M808-902c34-64-24-97-95-93v-103h516v103c-139 11-204 77-289 174L811-674l272 406c58 83 112 150 220 159V0c-189-2-347 7-443-82-27-24-53-58-80-100L598-469l-82 61v166c0 102 66 138 170 133V0H35v-109c104 5 170-31 170-133v-1081c0-98-69-130-170-125v-108h481c-4 334 9 683-10 1003l258-289c23-25 36-45 44-60" id="bM"/><g id="J"><use transform="matrix(0.015190972222222224,0,0,0.015190972222222224,0,0)" xlink:href="#bD"/><use transform="matrix(0.015190972222222224,0,0,0.015190972222222224,24.214409722222225,0)" xlink:href="#bg"/><use transform="matrix(0.015190972222222224,0,0,0.015190972222222224,41.97265625,0)" xlink:href="#bF"/><use transform="matrix(0.015190972222222224,0,0,0.015190972222222224,54.56597222222222,0)" xlink:href="#bn"/><use transform="matrix(0.015190972222222224,0,0,0.015190972222222224,80.89192708333334,0)" xlink:href="#be"/><use transform="matrix(0.015190972222222224,0,0,0.015190972222222224,99.95659722222223,0)" xlink:href="#bq"/><use transform="matrix(0.015190972222222224,0,0,0.015190972222222224,115.92230902777779,0)" xlink:href="#bM"/></g><path d="M754-1452c-227 146-308 431-308 801 0 371 81 658 308 805v131C374 131 117-129 117-651c0-520 258-779 637-930v129" id="bN"/><path d="M66 154C294 8 373-280 373-651c0-370-80-655-307-801v-129c380 152 636 409 636 930 0 523-257 783-636 936V154" id="bO"/><g id="K"><use transform="matrix(0.015190972222222224,0,0,0.015190972222222224,0,0)" xlink:href="#bN"/><use transform="matrix(0.015190972222222224,0,0,0.015190972222222224,12.441406250000002,0)" xlink:href="#bJ"/><use transform="matrix(0.015190972222222224,0,0,0.015190972222222224,34.134114583333336,0)" xlink:href="#bp"/><use transform="matrix(0.015190972222222224,0,0,0.015190972222222224,58.05989583333334,0)" xlink:href="#bK"/><use transform="matrix(0.015190972222222224,0,0,0.015190972222222224,78.84114583333334,0)" xlink:href="#bD"/><use transform="matrix(0.015190972222222224,0,0,0.015190972222222224,103.35937500000001,0)" xlink:href="#bO"/></g><path d="M51-481v-154h533v154H51" id="bP"/><g id="L"><use transform="matrix(0.010850694444444444,0,0,0.010850694444444444,0,0)" xlink:href="#bx"/><use transform="matrix(0.010850694444444444,0,0,0.010850694444444444,14.127604166666666,0)" xlink:href="#aR"/><use transform="matrix(0.010850694444444444,0,0,0.010850694444444444,26.01996527777778,0)" xlink:href="#bu"/><use transform="matrix(0.010850694444444444,0,0,0.010850694444444444,32.91015625,0)" xlink:href="#aM"/><use transform="matrix(0.010850694444444444,0,0,0.010850694444444444,45.20399305555556,0)" xlink:href="#aO"/><use transform="matrix(0.010850694444444444,0,0,0.010850694444444444,53.02734375,0)" xlink:href="#aT"/><use transform="matrix(0.010850694444444444,0,0,0.010850694444444444,60.13454861111112,0)" xlink:href="#aJ"/><use transform="matrix(0.010850694444444444,0,0,0.010850694444444444,72.96006944444444,0)" xlink:href="#aU"/><use transform="matrix(0.010850694444444444,0,0,0.010850694444444444,87.29383680555556,0)" xlink:href="#bP"/><use transform="matrix(0.010850694444444444,0,0,0.010850694444444444,94.1840277777778,0)" xlink:href="#bb"/><use transform="matrix(0.010850694444444444,0,0,0.010850694444444444,106.2717013888889,0)" xlink:href="#aL"/><use transform="matrix(0.010850694444444444,0,0,0.010850694444444444,119.91102430555557,0)" xlink:href="#aR"/><use transform="matrix(0.010850694444444444,0,0,0.010850694444444444,131.80338541666669,0)" xlink:href="#aN"/><use transform="matrix(0.010850694444444444,0,0,0.010850694444444444,142.74088541666669,0)" xlink:href="#aT"/><use transform="matrix(0.010850694444444444,0,0,0.010850694444444444,149.8480902777778,0)" xlink:href="#bC"/><use transform="matrix(0.010850694444444444,0,0,0.010850694444444444,158.0512152777778,0)" xlink:href="#aT"/><use transform="matrix(0.010850694444444444,0,0,0.010850694444444444,165.1584201388889,0)" xlink:href="#aN"/></g><path d="M322-226C292-111 376-75 500-86V0H0v-86c136 16 160-66 195-160l454-1216h160l463 1267c24 75 65 118 172 109V0H881v-86c113 10 195-27 165-133-27-93-63-180-94-270H414c-30 88-68 171-92 263zm593-366c-76-225-168-445-229-682-56 246-156 455-233 682h462" id="bQ"/><g id="M"><use transform="matrix(0.010850694444444444,0,0,0.010850694444444444,0,0)" xlink:href="#bQ"/><use transform="matrix(0.010850694444444444,0,0,0.010850694444444444,15.668402777777777,0)" xlink:href="#aV"/><use transform="matrix(0.010850694444444444,0,0,0.010850694444444444,27.625868055555554,0)" xlink:href="#aV"/><use transform="matrix(0.010850694444444444,0,0,0.010850694444444444,39.58333333333333,0)" xlink:href="#aZ"/><use transform="matrix(0.010850694444444444,0,0,0.010850694444444444,50.05425347222221,0)" xlink:href="#aR"/><use transform="matrix(0.010850694444444444,0,0,0.010850694444444444,61.94661458333333,0)" xlink:href="#aV"/><use transform="matrix(0.010850694444444444,0,0,0.010850694444444444,73.9040798611111,0)" xlink:href="#aM"/><use transform="matrix(0.010850694444444444,0,0,0.010850694444444444,86.19791666666666,0)" xlink:href="#aO"/><use transform="matrix(0.010850694444444444,0,0,0.010850694444444444,94.02126736111111,0)" xlink:href="#aT"/><use transform="matrix(0.010850694444444444,0,0,0.010850694444444444,101.12847222222221,0)" xlink:href="#aJ"/><use transform="matrix(0.010850694444444444,0,0,0.010850694444444444,113.95399305555556,0)" xlink:href="#aU"/></g><path d="M674-1376c-119-7-195 23-195 139v1135h404c178-1 180-179 200-338h107L1176 0H78v-86c122 7 194-27 194-147v-996c4-120-72-154-194-147v-86h596v86" id="bR"/><g id="N"><use transform="matrix(0.010850694444444444,0,0,0.010850694444444444,0,0)" xlink:href="#bb"/><use transform="matrix(0.010850694444444444,0,0,0.010850694444444444,12.08767361111111,0)" xlink:href="#aR"/><use transform="matrix(0.010850694444444444,0,0,0.010850694444444444,23.98003472222222,0)" xlink:href="#bu"/><use transform="matrix(0.010850694444444444,0,0,0.010850694444444444,30.870225694444443,0)" xlink:href="#bC"/><use transform="matrix(0.010850694444444444,0,0,0.010850694444444444,38.62847222222222,0)" xlink:href="#bP"/><use transform="matrix(0.010850694444444444,0,0,0.010850694444444444,45.51866319444444,0)" xlink:href="#bR"/><use transform="matrix(0.010850694444444444,0,0,0.010850694444444444,59.36414930555555,0)" xlink:href="#aJ"/><use transform="matrix(0.010850694444444444,0,0,0.010850694444444444,72.18967013888889,0)" xlink:href="#aJ"/><use transform="matrix(0.010850694444444444,0,0,0.010850694444444444,85.01519097222221,0)" xlink:href="#aL"/></g><path d="M479-233c-3 120 73 154 195 147V0H78v-86c122 7 194-27 194-147v-996c4-120-72-154-194-147v-86h596v86c-122-7-195 27-195 147v996" id="bS"/><path d="M887-864c2-112-62-153-174-148v-86h366v875c-3 108 66 141 174 137V0H928l-27-166h-10C829-49 733 21 559 20c-245-1-338-153-338-401v-491c2-108-66-143-174-140v-86h367v707c-1 168 46 283 215 280 191-4 258-139 258-331v-422" id="bT"/><g id="O"><use transform="matrix(0.010850694444444444,0,0,0.010850694444444444,0,0)" xlink:href="#bS"/><use transform="matrix(0.010850694444444444,0,0,0.010850694444444444,8.159722222222221,0)" xlink:href="#aU"/><use transform="matrix(0.010850694444444444,0,0,0.010850694444444444,22.493489583333332,0)" xlink:href="#aN"/><use transform="matrix(0.010850694444444444,0,0,0.010850694444444444,33.43098958333333,0)" xlink:href="#bu"/><use transform="matrix(0.010850694444444444,0,0,0.010850694444444444,40.32118055555555,0)" xlink:href="#bT"/><use transform="matrix(0.010850694444444444,0,0,0.010850694444444444,54.42708333333333,0)" xlink:href="#aS"/><use transform="matrix(0.010850694444444444,0,0,0.010850694444444444,68.06640625,0)" xlink:href="#aR"/><use transform="matrix(0.010850694444444444,0,0,0.010850694444444444,79.95876736111111,0)" xlink:href="#aS"/></g><path d="M678-1354c-79-2-106 44-105 125v1104h381c170 0 166-193 203-332h115L1257 0H57v-109h86c83 3 106-49 105-133v-979c1-84-22-133-105-133H57v-108h707v108h-86" id="bU"/><g id="P"><use transform="matrix(0.015190972222222224,0,0,0.015190972222222224,0,0)" xlink:href="#bU"/><use transform="matrix(0.015190972222222224,0,0,0.015190972222222224,20.340711805555557,0)" xlink:href="#bd"/><use transform="matrix(0.015190972222222224,0,0,0.015190972222222224,31.293402777777782,0)" xlink:href="#bm"/><use transform="matrix(0.015190972222222224,0,0,0.015190972222222224,52.044270833333336,0)" xlink:href="#bM"/></g><path d="M686-1462c328 4 559 115 559 434 0 359-281 480-674 469v328c-1 81 30 122 109 122h125V0H57v-109h86c83 3 106-49 105-133v-987c1-82-26-125-105-125H57v-108h629zm215 442c0-195-55-324-250-321h-80v663h50c215 5 280-127 280-342" id="bV"/><g id="Q"><use transform="matrix(0.015190972222222224,0,0,0.015190972222222224,0,0)" xlink:href="#bV"/><use transform="matrix(0.015190972222222224,0,0,0.015190972222222224,19.854600694444446,0)" xlink:href="#bq"/><use transform="matrix(0.015190972222222224,0,0,0.015190972222222224,36.12413194444444,0)" xlink:href="#bg"/><use transform="matrix(0.015190972222222224,0,0,0.015190972222222224,53.88237847222222,0)" xlink:href="#bh"/><use transform="matrix(0.015190972222222224,0,0,0.015190972222222224,74.07118055555556,0)" xlink:href="#bd"/><use transform="matrix(0.015190972222222224,0,0,0.015190972222222224,85.02387152777779,0)" xlink:href="#bi"/><use transform="matrix(0.015190972222222224,0,0,0.015190972222222224,101.41493055555557,0)" xlink:href="#bF"/><use transform="matrix(0.015190972222222224,0,0,0.015190972222222224,114.0082465277778,0)" xlink:href="#bd"/><use transform="matrix(0.015190972222222224,0,0,0.015190972222222224,124.96093750000004,0)" xlink:href="#be"/><use transform="matrix(0.015190972222222224,0,0,0.015190972222222224,144.0256076388889,0)" xlink:href="#bm"/></g><path d="M113-735c0-470 225-750 696-750 351 0 554 176 645 443 60 178 61 438 0 617-92 268-294 445-647 445-471 0-694-285-694-755zm533-575c-200 121-216 527-170 839 29 198 110 358 331 358 307 0 348-302 348-620 0-257-33-477-185-577-82-56-239-51-324 0" id="bW"/><path d="M205-854c2-106-65-138-170-135v-109h481V16c3 350-201 487-557 476V365c210 6 246-155 246-365v-854zm147-428c-103 0-174-45-174-148 0-104 70-147 174-147 103 0 176 44 176 147 0 102-74 148-176 148" id="bX"/><g id="R"><use transform="matrix(0.015190972222222224,0,0,0.015190972222222224,0,0)" xlink:href="#bW"/><use transform="matrix(0.015190972222222224,0,0,0.015190972222222224,24.487847222222225,0)" xlink:href="#bI"/><use transform="matrix(0.015190972222222224,0,0,0.015190972222222224,44.67664930555556,0)" xlink:href="#bX"/><use transform="matrix(0.015190972222222224,0,0,0.015190972222222224,55.41666666666667,0)" xlink:href="#bg"/><use transform="matrix(0.015190972222222224,0,0,0.015190972222222224,73.17491319444446,0)" xlink:href="#bi"/><use transform="matrix(0.015190972222222224,0,0,0.015190972222222224,89.56597222222223,0)" xlink:href="#bF"/><use transform="matrix(0.015190972222222224,0,0,0.015190972222222224,102.15928819444446,0)" xlink:href="#bd"/><use transform="matrix(0.015190972222222224,0,0,0.015190972222222224,112.48914930555557,0)" xlink:href="#bL"/><use transform="matrix(0.015190972222222224,0,0,0.015190972222222224,131.0373263888889,0)" xlink:href="#bg"/></g><g id="S"><use transform="matrix(0.010850694444444444,0,0,0.010850694444444444,0,0)" xlink:href="#bw"/><use transform="matrix(0.010850694444444444,0,0,0.010850694444444444,13.617621527777777,0)" xlink:href="#aZ"/><use transform="matrix(0.010850694444444444,0,0,0.010850694444444444,24.088541666666664,0)" xlink:href="#aT"/><use transform="matrix(0.010850694444444444,0,0,0.010850694444444444,31.195746527777775,0)" xlink:href="#aL"/><use transform="matrix(0.010850694444444444,0,0,0.010850694444444444,44.83506944444444,0)" xlink:href="#bu"/><use transform="matrix(0.010850694444444444,0,0,0.010850694444444444,51.725260416666664,0)" xlink:href="#aR"/></g><path d="M133-696v-72l879-473v137L324-731l688 369v137" id="bY"/><path d="M240-264c103 3 157 71 157 178 0 236-147 342-336 401v-86c67-21 116-48 148-78 47-43 70-129 8-163-50-28-111-51-111-131 0-77 59-123 134-121" id="bZ"/><g id="T"><use transform="matrix(0.010850694444444444,0,0,0.010850694444444444,0,0)" xlink:href="#bb"/><use transform="matrix(0.010850694444444444,0,0,0.010850694444444444,12.08767361111111,0)" xlink:href="#aN"/><use transform="matrix(0.010850694444444444,0,0,0.010850694444444444,23.02517361111111,0)" xlink:href="#aJ"/><use transform="matrix(0.010850694444444444,0,0,0.010850694444444444,35.85069444444444,0)" xlink:href="#aZ"/><use transform="matrix(0.010850694444444444,0,0,0.010850694444444444,46.32161458333333,0)" xlink:href="#aT"/><use transform="matrix(0.010850694444444444,0,0,0.010850694444444444,53.42881944444444,0)" xlink:href="#aU"/><use transform="matrix(0.010850694444444444,0,0,0.010850694444444444,67.76258680555556,0)" xlink:href="#aV"/><use transform="matrix(0.010850694444444444,0,0,0.010850694444444444,79.72005208333333,0)" xlink:href="#bY"/><use transform="matrix(0.010850694444444444,0,0,0.010850694444444444,92.14409722222221,0)" xlink:href="#bz"/><use transform="matrix(0.010850694444444444,0,0,0.010850694444444444,106.24999999999997,0)" xlink:href="#bZ"/></g><g id="U"><use transform="matrix(0.010850694444444444,0,0,0.010850694444444444,0,0)" xlink:href="#aZ"/><use transform="matrix(0.010850694444444444,0,0,0.010850694444444444,9.364149305555555,0)" xlink:href="#bZ"/></g><path d="M133-225v-137l688-369-688-373v-137l879 473v72" id="ca"/><g id="V"><use transform="matrix(0.010850694444444444,0,0,0.010850694444444444,0,0)" xlink:href="#aO"/><use transform="matrix(0.010850694444444444,0,0,0.010850694444444444,7.823350694444444,0)" xlink:href="#ca"/></g><path d="M886-871c30-101-37-149-145-141v-86h439v86c-127-12-147 70-181 160L676 0H489L160-903c-24-68-57-114-152-109v-86h512v86c-124-19-174 64-133 174 84 228 172 444 229 695h7c82-248 190-477 263-728" id="cb"/><g id="W"><use transform="matrix(0.010850694444444444,0,0,0.010850694444444444,0,0)" xlink:href="#by"/><use transform="matrix(0.010850694444444444,0,0,0.010850694444444444,16.742621527777775,0)" xlink:href="#aR"/><use transform="matrix(0.010850694444444444,0,0,0.010850694444444444,28.63498263888889,0)" xlink:href="#aV"/><use transform="matrix(0.010850694444444444,0,0,0.010850694444444444,40.592447916666664,0)" xlink:href="#aM"/><use transform="matrix(0.010850694444444444,0,0,0.010850694444444444,52.88628472222222,0)" xlink:href="#aO"/><use transform="matrix(0.010850694444444444,0,0,0.010850694444444444,60.709635416666664,0)" xlink:href="#aT"/><use transform="matrix(0.010850694444444444,0,0,0.010850694444444444,67.37196180555556,0)" xlink:href="#cb"/><use transform="matrix(0.010850694444444444,0,0,0.010850694444444444,80.02387152777779,0)" xlink:href="#aR"/></g><g id="X"><use transform="matrix(0.010850694444444444,0,0,0.010850694444444444,0,0)" xlink:href="#bb"/><use transform="matrix(0.010850694444444444,0,0,0.010850694444444444,12.08767361111111,0)" xlink:href="#aM"/><use transform="matrix(0.010850694444444444,0,0,0.010850694444444444,24.598524305555554,0)" xlink:href="#aK"/><use transform="matrix(0.010850694444444444,0,0,0.010850694444444444,45.37760416666667,0)" xlink:href="#aL"/><use transform="matrix(0.010850694444444444,0,0,0.010850694444444444,59.01692708333333,0)" xlink:href="#bu"/><use transform="matrix(0.010850694444444444,0,0,0.010850694444444444,65.90711805555556,0)" xlink:href="#aT"/><use transform="matrix(0.010850694444444444,0,0,0.010850694444444444,73.01432291666667,0)" xlink:href="#aU"/><use transform="matrix(0.010850694444444444,0,0,0.010850694444444444,87.34809027777779,0)" xlink:href="#aV"/></g><path d="M272-1237c3-115-76-146-194-139v-86c450 26 1075-122 1075 366 0 189-111 274-254 322v8c190 36 315 149 315 371 0 294-205 395-526 395H78v-86c122 7 194-27 194-147v-1004zm723 836c0-219-94-319-313-314H479v613h199c216 6 317-83 317-299zm-61-695c0-206-113-269-318-264H479v543h142c209 5 313-71 313-279" id="cc"/><g id="Y"><use transform="matrix(0.010850694444444444,0,0,0.010850694444444444,0,0)" xlink:href="#bB"/><use transform="matrix(0.010850694444444444,0,0,0.010850694444444444,20.84418402777778,0)" xlink:href="#aM"/><use transform="matrix(0.010850694444444444,0,0,0.010850694444444444,33.35503472222222,0)" xlink:href="#aZ"/><use transform="matrix(0.010850694444444444,0,0,0.010850694444444444,43.60894097222223,0)" xlink:href="#aV"/><use transform="matrix(0.010850694444444444,0,0,0.010850694444444444,55.56640625000001,0)" xlink:href="#aT"/><use transform="matrix(0.010850694444444444,0,0,0.010850694444444444,62.67361111111112,0)" xlink:href="#aU"/><use transform="matrix(0.010850694444444444,0,0,0.010850694444444444,77.00737847222223,0)" xlink:href="#bP"/><use transform="matrix(0.010850694444444444,0,0,0.010850694444444444,83.89756944444446,0)" xlink:href="#cc"/><use transform="matrix(0.010850694444444444,0,0,0.010850694444444444,98.42664930555557,0)" xlink:href="#aM"/><use transform="matrix(0.010850694444444444,0,0,0.010850694444444444,110.93750000000001,0)" xlink:href="#bv"/><use transform="matrix(0.010850694444444444,0,0,0.010850694444444444,120.96354166666669,0)" xlink:href="#aR"/><use transform="matrix(0.010850694444444444,0,0,0.010850694444444444,132.8559027777778,0)" xlink:href="#aS"/></g><g id="Z"><use transform="matrix(0.010850694444444444,0,0,0.010850694444444444,0,0)" xlink:href="#bR"/><use transform="matrix(0.010850694444444444,0,0,0.010850694444444444,13.84548611111111,0)" xlink:href="#aJ"/><use transform="matrix(0.010850694444444444,0,0,0.010850694444444444,26.671006944444443,0)" xlink:href="#bv"/><use transform="matrix(0.010850694444444444,0,0,0.010850694444444444,36.69704861111111,0)" xlink:href="#bv"/></g><path d="M705-1462c450 9 667 274 667 729S1160 0 705 0H78v-86c122 7 194-27 194-147v-1004c3-115-76-146-194-139v-86h627zm440 729c2-374-134-623-486-627H479v1256h178c362-7 486-260 488-629" id="cd"/><path d="M508-1012c-85 0-151 4-150 86 0 28 11 63 17 88 59 216 125 426 168 658h6c20-100 53-202 84-293l213-619h129c98 304 212 592 293 912h6c46-231 140-457 196-684 26-106-33-156-145-148v-86h438v86c-127-12-151 65-180 160L1319 0h-164L911-721l-37-135L584 0H422L154-903c-24-68-57-114-152-109v-86h506v86" id="ce"/><g id="aa"><use transform="matrix(0.013020833333333334,0,0,0.013020833333333334,0,0)" xlink:href="#cd"/><use transform="matrix(0.013020833333333334,0,0,0.013020833333333334,19.388020833333336,0)" xlink:href="#aR"/><use transform="matrix(0.013020833333333334,0,0,0.013020833333333334,33.65885416666667,0)" xlink:href="#aV"/><use transform="matrix(0.013020833333333334,0,0,0.013020833333333334,48.00781250000001,0)" xlink:href="#aZ"/><use transform="matrix(0.013020833333333334,0,0,0.013020833333333334,60.57291666666667,0)" xlink:href="#aR"/><use transform="matrix(0.013020833333333334,0,0,0.013020833333333334,74.84375,0)" xlink:href="#aR"/><use transform="matrix(0.013020833333333334,0,0,0.013020833333333334,89.90885416666666,0)" xlink:href="#bP"/><use transform="matrix(0.013020833333333334,0,0,0.013020833333333334,98.7109375,0)" xlink:href="#aM"/><use transform="matrix(0.013020833333333334,0,0,0.013020833333333334,113.19010416666664,0)" xlink:href="#ce"/><use transform="matrix(0.013020833333333334,0,0,0.013020833333333334,135.3515625,0)" xlink:href="#aM"/><use transform="matrix(0.013020833333333334,0,0,0.013020833333333334,150.36458333333334,0)" xlink:href="#aZ"/><use transform="matrix(0.013020833333333334,0,0,0.013020833333333334,162.9296875,0)" xlink:href="#aR"/></g><g id="ab"><use transform="matrix(0.013020833333333334,0,0,0.013020833333333334,0,0)" xlink:href="#aS"/><use transform="matrix(0.013020833333333334,0,0,0.013020833333333334,16.106770833333332,0)" xlink:href="#aW"/><use transform="matrix(0.013020833333333334,0,0,0.013020833333333334,31.171875,0)" xlink:href="#aU"/><use transform="matrix(0.013020833333333334,0,0,0.013020833333333334,48.372395833333336,0)" xlink:href="#aM"/><use transform="matrix(0.013020833333333334,0,0,0.013020833333333334,63.38541666666667,0)" xlink:href="#aK"/><use transform="matrix(0.013020833333333334,0,0,0.013020833333333334,88.58072916666667,0)" xlink:href="#aT"/><use transform="matrix(0.013020833333333334,0,0,0.013020833333333334,97.109375,0)" xlink:href="#aN"/></g><g id="ac"><use transform="matrix(0.013020833333333334,0,0,0.013020833333333334,0,0)" xlink:href="#aR"/><use transform="matrix(0.013020833333333334,0,0,0.013020833333333334,14.270833333333334,0)" xlink:href="#aK"/><use transform="matrix(0.013020833333333334,0,0,0.013020833333333334,39.466145833333336,0)" xlink:href="#aQ"/><use transform="matrix(0.013020833333333334,0,0,0.013020833333333334,55.833333333333336,0)" xlink:href="#aR"/><use transform="matrix(0.013020833333333334,0,0,0.013020833333333334,70.10416666666667,0)" xlink:href="#aS"/><use transform="matrix(0.013020833333333334,0,0,0.013020833333333334,86.47135416666667,0)" xlink:href="#aS"/><use transform="matrix(0.013020833333333334,0,0,0.013020833333333334,102.83854166666667,0)" xlink:href="#aT"/><use transform="matrix(0.013020833333333334,0,0,0.013020833333333334,111.3671875,0)" xlink:href="#aU"/><use transform="matrix(0.013020833333333334,0,0,0.013020833333333334,128.56770833333334,0)" xlink:href="#aV"/></g><g id="ad"><use transform="matrix(0.013020833333333334,0,0,0.013020833333333334,0,0)" xlink:href="#aM"/><use transform="matrix(0.013020833333333334,0,0,0.013020833333333334,15.013020833333334,0)" xlink:href="#bu"/><use transform="matrix(0.013020833333333334,0,0,0.013020833333333334,23.28125,0)" xlink:href="#bu"/><use transform="matrix(0.013020833333333334,0,0,0.013020833333333334,31.549479166666668,0)" xlink:href="#aJ"/><use transform="matrix(0.013020833333333334,0,0,0.013020833333333334,46.94010416666667,0)" xlink:href="#aN"/><use transform="matrix(0.013020833333333334,0,0,0.013020833333333334,60.06510416666667,0)" xlink:href="#aM"/><use transform="matrix(0.013020833333333334,0,0,0.013020833333333334,74.81770833333334,0)" xlink:href="#aO"/><use transform="matrix(0.013020833333333334,0,0,0.013020833333333334,84.20572916666667,0)" xlink:href="#aT"/><use transform="matrix(0.013020833333333334,0,0,0.013020833333333334,92.734375,0)" xlink:href="#aJ"/><use transform="matrix(0.013020833333333334,0,0,0.013020833333333334,108.125,0)" xlink:href="#aU"/></g><g id="ae"><use transform="matrix(0.013020833333333334,0,0,0.013020833333333334,0,0)" xlink:href="#bb"/><use transform="matrix(0.013020833333333334,0,0,0.013020833333333334,14.505208333333334,0)" xlink:href="#aN"/><use transform="matrix(0.013020833333333334,0,0,0.013020833333333334,27.630208333333336,0)" xlink:href="#aM"/><use transform="matrix(0.013020833333333334,0,0,0.013020833333333334,42.64322916666667,0)" xlink:href="#bu"/><use transform="matrix(0.013020833333333334,0,0,0.013020833333333334,50.91145833333334,0)" xlink:href="#aM"/><use transform="matrix(0.013020833333333334,0,0,0.013020833333333334,65.92447916666667,0)" xlink:href="#aQ"/><use transform="matrix(0.013020833333333334,0,0,0.013020833333333334,82.29166666666667,0)" xlink:href="#bu"/><use transform="matrix(0.013020833333333334,0,0,0.013020833333333334,90.55989583333334,0)" xlink:href="#aR"/></g><g id="af"><use transform="matrix(0.013020833333333334,0,0,0.013020833333333334,0,0)" xlink:href="#bu"/><use transform="matrix(0.013020833333333334,0,0,0.013020833333333334,8.268229166666668,0)" xlink:href="#aJ"/><use transform="matrix(0.013020833333333334,0,0,0.013020833333333334,23.658854166666668,0)" xlink:href="#aN"/><use transform="matrix(0.013020833333333334,0,0,0.013020833333333334,36.78385416666667,0)" xlink:href="#aM"/><use transform="matrix(0.013020833333333334,0,0,0.013020833333333334,51.79687500000001,0)" xlink:href="#bu"/></g><g id="ag"><use transform="matrix(0.013020833333333334,0,0,0.013020833333333334,0,0)" xlink:href="#bv"/><use transform="matrix(0.013020833333333334,0,0,0.013020833333333334,11.770833333333334,0)" xlink:href="#bT"/><use transform="matrix(0.013020833333333334,0,0,0.013020833333333334,28.697916666666675,0)" xlink:href="#aQ"/><use transform="matrix(0.013020833333333334,0,0,0.013020833333333334,45.06510416666667,0)" xlink:href="#aV"/><use transform="matrix(0.013020833333333334,0,0,0.013020833333333334,59.4140625,0)" xlink:href="#aZ"/><use transform="matrix(0.013020833333333334,0,0,0.013020833333333334,71.97916666666667,0)" xlink:href="#aM"/><use transform="matrix(0.013020833333333334,0,0,0.013020833333333334,86.9921875,0)" xlink:href="#aL"/><use transform="matrix(0.013020833333333334,0,0,0.013020833333333334,103.359375,0)" xlink:href="#bz"/></g><g id="ah"><use transform="matrix(0.013020833333333334,0,0,0.013020833333333334,0,0)" xlink:href="#aN"/><use transform="matrix(0.013020833333333334,0,0,0.013020833333333334,13.125,0)" xlink:href="#aJ"/><use transform="matrix(0.013020833333333334,0,0,0.013020833333333334,28.515625,0)" xlink:href="#aU"/><use transform="matrix(0.013020833333333334,0,0,0.013020833333333334,45.716145833333336,0)" xlink:href="#bv"/><use transform="matrix(0.013020833333333334,0,0,0.013020833333333334,57.747395833333336,0)" xlink:href="#aO"/><use transform="matrix(0.013020833333333334,0,0,0.013020833333333334,67.13541666666667,0)" xlink:href="#aZ"/><use transform="matrix(0.013020833333333334,0,0,0.013020833333333334,79.70052083333334,0)" xlink:href="#bT"/><use transform="matrix(0.013020833333333334,0,0,0.013020833333333334,96.62760416666669,0)" xlink:href="#aN"/><use transform="matrix(0.013020833333333334,0,0,0.013020833333333334,109.7526041666667,0)" xlink:href="#aO"/><use transform="matrix(0.013020833333333334,0,0,0.013020833333333334,119.140625,0)" xlink:href="#aT"/><use transform="matrix(0.013020833333333334,0,0,0.013020833333333334,127.66927083333334,0)" xlink:href="#aJ"/><use transform="matrix(0.013020833333333334,0,0,0.013020833333333334,143.05989583333334,0)" xlink:href="#aU"/></g><path d="M115-735c0-455 195-750 647-750 335 0 516 182 599 443 56 178 56 438 0 617-83 263-265 445-601 445-453 0-645-301-645-755zm647-639c-345 0-420 288-420 641S416-90 760-90s416-291 416-643c0-351-70-641-414-641" id="cf"/><g id="ai"><use transform="matrix(0.010850694444444444,0,0,0.010850694444444444,0,0)" xlink:href="#aH"/><use transform="matrix(0.010850694444444444,0,0,0.010850694444444444,7.693142361111111,0)" xlink:href="#bb"/><use transform="matrix(0.010850694444444444,0,0,0.010850694444444444,19.78081597222222,0)" xlink:href="#by"/><use transform="matrix(0.010850694444444444,0,0,0.010850694444444444,36.740451388888886,0)" xlink:href="#cf"/><use transform="matrix(0.010850694444444444,0,0,0.010850694444444444,53.23350694444444,0)" xlink:href="#bB"/><use transform="matrix(0.010850694444444444,0,0,0.010850694444444444,74.07769097222223,0)" xlink:href="#aP"/><use transform="matrix(0.010850694444444444,0,0,0.010850694444444444,87.92317708333334,0)" xlink:href="#cd"/></g><g id="aj"><use transform="matrix(0.010850694444444444,0,0,0.010850694444444444,0,0)" xlink:href="#aI"/><use transform="matrix(0.010850694444444444,0,0,0.010850694444444444,13.856336805555555,0)" xlink:href="#bw"/></g><path d="M633-672v379H510v-379H133v-121h377v-378h123v378h379v121H633" id="cg"/><use transform="matrix(0.010850694444444444,0,0,0.010850694444444444,0,0)" xlink:href="#cg" id="ak"/><path d="M1047-1188c37-106 8-202-117-188h-47v-86h499v86c-135-16-160 62-194 159L764 0H614L172-1268c-22-75-67-117-172-108v-86h563v86c-110-10-197 24-165 133C500-894 642-571 727-201c78-350 208-663 320-987" id="ch"/><g id="al"><use transform="matrix(0.010850694444444444,0,0,0.010850694444444444,0,0)" xlink:href="#bB"/><use transform="matrix(0.010850694444444444,0,0,0.010850694444444444,20.84418402777778,0)" xlink:href="#bS"/><use transform="matrix(0.010850694444444444,0,0,0.010850694444444444,29.00390625,0)" xlink:href="#bB"/><use transform="matrix(0.010850694444444444,0,0,0.010850694444444444,49.84809027777778,0)" xlink:href="#bS"/><use transform="matrix(0.010850694444444444,0,0,0.010850694444444444,58.0078125,0)" xlink:href="#aI"/><use transform="matrix(0.010850694444444444,0,0,0.010850694444444444,71.20225694444444,0)" xlink:href="#bP"/><use transform="matrix(0.010850694444444444,0,0,0.010850694444444444,78.09244791666667,0)" xlink:href="#bS"/><use transform="matrix(0.010850694444444444,0,0,0.010850694444444444,86.25217013888889,0)" xlink:href="#ch"/><use transform="matrix(0.010850694444444444,0,0,0.010850694444444444,101.24782986111111,0)" xlink:href="#aX"/></g><path d="M733-1462c467 5 725 237 725 704 0 360-150 596-410 702C958-19 852 0 733 0H57v-109h86c83 3 106-49 105-133v-987c1-82-26-125-105-125H57v-108h676zm379 704c0-195-36-341-108-436s-177-143-316-143H571v1210c120 2 220 3 300-43 173-99 240-314 241-588" id="ci"/><g id="am"><use transform="matrix(0.009765625,0,0,0.009765625,0,0)" xlink:href="#bU"/><use transform="matrix(0.009765625,0,0,0.009765625,13.076171875,0)" xlink:href="#be"/><use transform="matrix(0.009765625,0,0,0.009765625,25.13671875,0)" xlink:href="#bn"/><use transform="matrix(0.009765625,0,0,0.009765625,42.255859375,0)" xlink:href="#bE"/><use transform="matrix(0.009765625,0,0,0.009765625,48.45703125,0)" xlink:href="#ci"/><use transform="matrix(0.009765625,0,0,0.009765625,63.798828125,0)" xlink:href="#bg"/><use transform="matrix(0.009765625,0,0,0.009765625,75.21484375,0)" xlink:href="#bo"/><use transform="matrix(0.009765625,0,0,0.009765625,86.416015625,0)" xlink:href="#bq"/><use transform="matrix(0.009765625,0,0,0.009765625,96.875,0)" xlink:href="#bg"/><use transform="matrix(0.009765625,0,0,0.009765625,108.291015625,0)" xlink:href="#bg"/></g><path d="M918-340C918-83 735 20 473 20 291 20 148-13 84-124c-28-48-33-130-4-176 31-52 94-75 172-75 4 159 67 268 221 275 134 7 248-76 191-200-56-121-266-138-386-206C171-566 82-637 82-797c0-243 192-325 440-325 157 0 279 31 339 121 38 57 21 139-29 174-33 23-85 36-160 36 1-128-56-215-180-215-113 0-209 80-154 186 62 119 269 132 394 204 99 57 186 127 186 276" id="cj"/><g id="an"><use transform="matrix(0.009765625,0,0,0.009765625,0,0)" xlink:href="#bD"/><use transform="matrix(0.009765625,0,0,0.009765625,15.56640625,0)" xlink:href="#be"/><use transform="matrix(0.009765625,0,0,0.009765625,27.822265625,0)" xlink:href="#bh"/><use transform="matrix(0.009765625,0,0,0.009765625,40.80078125,0)" xlink:href="#bg"/><use transform="matrix(0.009765625,0,0,0.009765625,52.216796875,0)" xlink:href="#cj"/></g><path d="M1430-231c-1 79 26 122 104 122h86V0H913v-109h88c82 2 105-49 105-133v-458H571v458c0 83 23 133 105 133h88V0H57v-109h86c82 2 105-49 105-133v-986c1-81-27-125-105-125H57v-109h707v109h-88c-82-2-105 50-105 133v395h535v-395c1-84-23-133-105-133h-88v-109h707v109h-86c-81-2-104 49-104 133v989" id="ck"/><g id="ao"><use transform="matrix(0.009765625,0,0,0.009765625,0,0)" xlink:href="#ck"/><use transform="matrix(0.009765625,0,0,0.009765625,16.376953125,0)" xlink:href="#bd"/><use transform="matrix(0.009765625,0,0,0.009765625,23.41796875,0)" xlink:href="#bo"/><use transform="matrix(0.009765625,0,0,0.009765625,34.619140625,0)" xlink:href="#bs"/><use transform="matrix(0.009765625,0,0,0.009765625,47.958984375,0)" xlink:href="#bE"/><use transform="matrix(0.009765625,0,0,0.009765625,54.16015625,0)" xlink:href="#ci"/><use transform="matrix(0.009765625,0,0,0.009765625,69.501953125,0)" xlink:href="#bg"/><use transform="matrix(0.009765625,0,0,0.009765625,80.91796875,0)" xlink:href="#bo"/><use transform="matrix(0.009765625,0,0,0.009765625,92.119140625,0)" xlink:href="#bq"/><use transform="matrix(0.009765625,0,0,0.009765625,102.578125,0)" xlink:href="#bg"/><use transform="matrix(0.009765625,0,0,0.009765625,113.994140625,0)" xlink:href="#bg"/></g></defs></g></svg>